<svg xmlns="http://www.w3.org/2000/svg" width="177" height="120" viewBox="0 0 177 120" fill="none">
  <g opacity="0.8">
    <path fill-rule="evenodd" clip-rule="evenodd" d="M8.46984 50.1898C-8.52832 82.7492 15.9597 119.697 70.39 119.993C124.82 120.289 187.075 110.615 174.419 76.8087C161.763 43.0027 114.216 76.6217 88.642 49.6572C63.0682 22.6927 25.468 17.6304 8.46984 50.1898Z" fill="#FFEADD"/>
    <path fill-rule="evenodd" clip-rule="evenodd" d="M114.651 29.213C121.747 46.9741 162.517 54.1177 168.737 42.3319C174.957 30.5461 156.049 28.6809 145.343 12.5549C134.636 -3.57108 107.556 11.452 114.651 29.213Z" fill="#FFEADD"/>
    <path fill-rule="evenodd" clip-rule="evenodd" d="M63.1968 68.8759C63.1968 68.8759 67.3651 90.0986 108.265 90.0986C149.165 90.0986 153.284 68.8759 153.284 68.8759H63.1968Z" fill="#5A4F53"/>
    <path fill-rule="evenodd" clip-rule="evenodd" d="M108.24 82.4113C133.117 82.4113 153.284 76.3512 153.284 68.8757C153.284 61.4002 133.117 55.3401 108.24 55.3401C83.3635 55.3401 63.1968 61.4002 63.1968 68.8757C63.1968 76.3512 83.3635 82.4113 108.24 82.4113Z" fill="#393035"/>
    <path fill-rule="evenodd" clip-rule="evenodd" d="M110.639 79.0795C133.73 79.0795 152.45 74.045 152.45 67.8345C152.45 61.6241 133.73 56.5896 110.639 56.5896C87.5469 56.5896 68.8274 61.6241 68.8274 67.8345C68.8274 74.045 87.5469 79.0795 110.639 79.0795Z" fill="white"/>
    <path fill-rule="evenodd" clip-rule="evenodd" d="M110.013 79.0795C133.105 79.0795 151.824 74.045 151.824 67.8345C151.824 61.6241 133.105 56.5896 110.013 56.5896C86.9215 56.5896 68.2019 61.6241 68.2019 67.8345C68.2019 74.045 86.9215 79.0795 110.013 79.0795Z" fill="#5A4F53"/>
    <path fill-rule="evenodd" clip-rule="evenodd" d="M108.762 78.4548C131.163 78.4548 149.322 73.5601 149.322 67.5222C149.322 61.4843 131.163 56.5896 108.762 56.5896C86.3613 56.5896 68.2019 61.4843 68.2019 67.5222C68.2019 73.5601 86.3613 78.4548 108.762 78.4548Z" fill="#251F22"/>
    <path opacity="0.505394" fill-rule="evenodd" clip-rule="evenodd" d="M100.796 56.8003C101.128 56.8224 101.462 56.8459 101.797 56.8706C95.3032 58.4942 92.782 61.5994 94.2337 66.1863C96.2359 72.5124 105.137 77.5769 114.349 78.3518C112.523 78.4197 110.658 78.4547 108.762 78.4547C86.3613 78.4547 68.2019 73.56 68.2019 67.5221C68.2019 62.2191 82.2098 57.798 100.796 56.8003Z" fill="#21171D"/>
    <path opacity="0.505394" fill-rule="evenodd" clip-rule="evenodd" d="M76.2764 74.0694C83.6395 71.3113 95.6522 69.5154 109.221 69.5154C122.511 69.5154 134.309 71.2383 141.706 73.9008C134.343 76.6589 122.331 78.4548 108.762 78.4548C95.4715 78.4548 83.6741 76.7318 76.2764 74.0694H76.2764Z" fill="#1A1216"/>
    <path fill-rule="evenodd" clip-rule="evenodd" d="M65.4526 95.528L75.1673 109.604C75.1673 109.604 86.6962 101.849 96.1179 98.3432C110.434 99.6933 113.71 97.8271 119.859 95.528C126.008 93.2288 130.607 90.0193 132.421 88.944C134.234 87.8688 130.61 85.8626 127.655 87.4033C124.701 88.944 116.575 90.0041 113.214 89.2296C109.853 88.4552 102.083 87.5065 98.135 89.7263C94.0526 89.4623 88.8802 88.5384 88.8802 88.5384L65.4526 95.528Z" fill="#FFD2A8"/>
    <path fill-rule="evenodd" clip-rule="evenodd" d="M76.5169 91.0326C76.5169 91.0326 89.6858 89.4053 87.282 105.146L59.7618 120C59.7618 120 46.3597 117.579 39.594 115.321C32.8283 113.063 23.9656 107.467 23.9656 107.467L76.5169 91.0326Z" fill="#C8BAB5"/>
    <path fill-rule="evenodd" clip-rule="evenodd" d="M100.3 59.8895C125.02 55.0845 143.947 45.464 142.574 38.4014C141.201 31.3388 128.733 6.57707 90.1391 15.3602C51.5456 24.1434 51.6822 48.7389 53.0551 55.8015C54.428 62.8641 75.5804 64.6944 100.3 59.8895Z" fill="url(#paint0_linear_1_5861)"/>
    <path opacity="0.200707" fill-rule="evenodd" clip-rule="evenodd" d="M72.3097 21.7263C66.8274 28.5014 65.4581 34.9922 68.2019 41.1986C72.8636 51.7435 91.0493 58.9023 117.968 55.3548C112.626 57.101 106.655 58.6543 100.301 59.8893C75.5806 64.6942 54.4282 62.864 53.0553 55.8014C51.9391 50.0592 51.64 32.7269 72.3097 21.7263V21.7263Z" fill="#EFEFEF"/>
    <path fill-rule="evenodd" clip-rule="evenodd" d="M47.4372 32.7048C47.4372 32.7048 51.9474 22.255 56.411 18.3398C60.8745 14.4246 63.1008 14.8404 64.6957 13.6567C66.2907 12.473 70.9758 12.3042 72.9656 11.1321C74.9554 9.95991 86.4464 11.6743 88.5867 11.6743C90.7271 11.6743 91.8236 14.1865 84.1128 15.2687C76.4019 16.3509 71.8329 16.0509 71.8329 19.4829C71.8329 22.9148 79.6488 20.6259 81.6414 19.4829C83.634 18.3398 86.8081 15.6376 88.5867 16.9685C90.3653 18.2994 82.6565 23.573 79.126 27.2482C75.5954 30.9234 65.7899 39.7599 61.1004 39.7599C48.1182 47.4595 27.0193 60.6477 27.0193 60.6477L18.895 47.1475L47.4372 32.7048Z" fill="#FFD2A8"/>
    <path fill-rule="evenodd" clip-rule="evenodd" d="M38.273 34.9299C38.273 34.9299 51.2963 32.3879 49.9965 48.2583L3.14257 74.9442C3.14257 74.9442 2.68671 66.9913 4.06291 60.6476C5.4391 54.3039 10.9094 45.3597 10.9094 45.3597L38.273 34.9299Z" fill="#C8BAB5"/>
    <path fill-rule="evenodd" clip-rule="evenodd" d="M82.7174 18.7962C82.7174 18.7962 81.9828 14.0297 80.3246 12.8319C78.6664 11.634 82.3655 8.94116 86.7705 8.94116C91.1755 8.94116 88.834 10.7072 88.834 12.3463C88.834 13.9854 90.5212 17.5532 90.5212 17.5532C90.5212 17.5532 91.6146 19.8611 86.1275 21.1068C87.9 19.6658 89.1429 17.8621 88.6662 17.159C88.1608 16.4135 87.0392 16.5562 86.1275 16.8652C84.7195 17.3424 82.7174 18.7962 82.7174 18.7962Z" fill="#5A4F53"/>
    <path fill-rule="evenodd" clip-rule="evenodd" d="M82.6644 14.3138C83.9875 15.2887 85.0969 16.1816 86.1247 16.8663C85.1866 17.1848 84.2464 17.8461 82.7174 18.7964C82.2277 15.6187 81.43 13.6306 80.3246 12.832C79.4721 12.2162 80.0356 11.2052 81.3831 10.3682C80.2386 11.526 80.6657 12.8412 82.6644 14.3138ZM86.0028 21.1066C87.2936 19.7436 88.3181 18.9424 88.6401 18.0804C89.297 18.2415 89.9675 18.2622 90.6907 18.1049C90.8565 19.3778 89.2107 20.3783 86.0028 21.1066Z" fill="#393035"/>
    <path fill-rule="evenodd" clip-rule="evenodd" d="M104.934 70.3442C104.934 70.3442 105.938 65.8375 110.517 64.9711C115.097 64.1048 120.896 63.8348 122.538 61.4958C122.538 61.4958 121.098 70.6857 114.387 72.4943C107.675 74.3028 104.934 71.1511 104.934 71.1511C104.934 71.1511 101.578 72.7023 98.0429 72.7023C98.0429 72.7023 97.4363 72.5669 97.4363 71.9092C97.4363 71.2515 98.0429 71.1511 98.0429 71.1511C98.0429 71.1511 100.253 71.3784 101.451 71.1511C102.65 70.9238 104.934 70.3442 104.934 70.3442Z" fill="url(#paint1_linear_1_5861)"/>
    <path fill-rule="evenodd" clip-rule="evenodd" d="M98.3508 72.6993C98.2483 72.7012 98.1456 72.7022 98.0429 72.7022C97.6385 72.6119 97.4363 72.3475 97.4363 71.9091C97.4363 71.4706 97.6385 71.2179 98.0429 71.151C98.1511 71.1621 98.2575 71.1725 98.3622 71.182C98.4816 71.3802 98.5544 71.6431 98.5544 71.9314C98.5544 72.2287 98.477 72.499 98.3508 72.6993Z" fill="url(#paint2_linear_1_5861)"/>
    <path fill-rule="evenodd" clip-rule="evenodd" d="M122.229 61.8657C117.526 67.3876 111.761 70.2138 104.934 70.3443C105.604 67.3398 107.465 65.5488 110.518 64.9712C114.844 64.1528 120.258 63.8666 122.229 61.8657V61.8657Z" fill="url(#paint3_linear_1_5861)"/>
  </g>
  <defs>
    <linearGradient id="paint0_linear_1_5861" x1="46.8223" y1="23.7363" x2="55.5409" y2="68.5898" gradientUnits="userSpaceOnUse">
      <stop stop-color="#E7E5E2"/>
      <stop offset="1" stop-color="#CBC6C1"/>
    </linearGradient>
    <linearGradient id="paint1_linear_1_5861" x1="97.4363" y1="61.4958" x2="97.4363" y2="73.1537" gradientUnits="userSpaceOnUse">
      <stop stop-color="#C7DB6D"/>
      <stop offset="1" stop-color="#95B53B"/>
    </linearGradient>
    <linearGradient id="paint2_linear_1_5861" x1="97.4363" y1="71.151" x2="97.4363" y2="72.7022" gradientUnits="userSpaceOnUse">
      <stop stop-color="#C7DB6D"/>
      <stop offset="1" stop-color="#95B53B"/>
    </linearGradient>
    <linearGradient id="paint3_linear_1_5861" x1="104.934" y1="61.8657" x2="104.934" y2="70.3443" gradientUnits="userSpaceOnUse">
      <stop stop-color="#90A538"/>
      <stop offset="1" stop-color="#95B53B"/>
    </linearGradient>
  </defs>
</svg>