<svg xmlns="http://www.w3.org/2000/svg" width="143" height="121" viewBox="0 0 143 121" fill="none">
  <path d="M49.8203 36.0086V25.9869C49.8203 15.9652 57.8138 7.73315 67.9548 7.73315C77.8571 7.73315 86.0892 15.8459 86.0892 25.9869V36.0086" stroke="#F8BCA7" stroke-width="1.8941" stroke-miterlimit="10" stroke-linecap="round" stroke-linejoin="round"/>
  <path d="M111.859 110.455C112.337 110.217 112.456 109.978 112.933 109.859" stroke="#FF78B7" stroke-width="0.6123" stroke-linecap="round" stroke-linejoin="round"/>
  <path d="M13.4321 120H141.447" stroke="#EC9476" stroke-width="2" stroke-miterlimit="10" stroke-linecap="round" stroke-linejoin="round"/>
  <path d="M1.74048 120H6.98992" stroke="#EC9476" stroke-width="2" stroke-miterlimit="10" stroke-linecap="round" stroke-linejoin="round"/>
  <path d="M120.927 17.0391H19.2787V118.926H120.927V17.0391Z" fill="white"/>
  <path d="M121.165 17.0391H47.5538V118.926H121.046V17.0391H121.165Z" fill="#FFF0E7"/>
  <path d="M33.3567 17.0391H19.2787V118.926H33.3567V17.0391Z" fill="url(#paint0_linear_1_5355)"/>
  <path d="M47.5541 118.926H19.2787V118.687L33.5954 104.49L47.5541 118.926Z" fill="#FFF0E7"/>
  <path d="M65.3306 39.7071C67.3587 39.7071 69.029 38.0368 69.029 36.0086C69.029 33.9804 67.3587 32.3101 65.3306 32.3101C63.3024 32.3101 61.6321 33.9804 61.6321 36.0086C61.6321 38.0368 63.3024 39.7071 65.3306 39.7071Z" fill="#F8BCA7"/>
  <path d="M101.599 39.7071C103.628 39.7071 105.298 38.0368 105.298 36.0086C105.298 33.9804 103.628 32.3101 101.599 32.3101C99.5712 32.3101 97.9009 33.9804 97.9009 36.0086C98.0202 38.0368 99.5712 39.7071 101.599 39.7071Z" fill="#F8BCA7"/>
  <path d="M65.3301 36.0086V25.9869C65.3301 15.9652 73.3236 7.73315 83.4645 7.73315C93.3669 7.73315 101.599 15.8459 101.599 25.9869V36.0086" stroke="#F8BCA7" stroke-width="1.8941" stroke-miterlimit="10" stroke-linecap="round" stroke-linejoin="round"/>
  <path d="M113.164 3.62872C115.741 1.97717 118.78 1.05231 122.017 1.05231C130.869 1.05231 138.07 8.18698 138.07 17.0393C138.07 25.8916 130.869 33.0262 122.017 33.0262C113.164 33.0262 105.964 25.8916 105.964 17.0393C105.832 11.424 108.738 6.53544 113.164 3.62872Z" fill="url(#paint1_linear_1_5355)"/>
  <path d="M122.015 24.1974C118.79 24.1974 116.05 21.3019 116.05 16.9586C116.05 12.6154 118.79 9.88074 122.015 9.88074C125.239 9.88074 127.98 12.6154 127.98 16.9586C127.98 21.3019 125.239 24.1974 122.015 24.1974ZM122.015 20.8193C123.143 20.8193 124.272 19.6933 124.272 16.9586C124.433 14.3849 123.143 13.098 122.015 13.098C120.886 13.098 119.758 14.3849 119.758 16.9586C119.758 19.6933 120.886 20.8193 122.015 20.8193Z" fill="white"/>
  <path d="M71.9831 68.6979C67.8848 68.6979 64.4422 66.0758 63.1308 62.3065C62.8029 61.4871 63.2947 60.6677 64.1144 60.34C64.934 60.0122 65.7537 60.5038 66.0815 61.3233C66.9012 63.7815 69.3602 65.5842 71.9831 65.5842C74.606 65.5842 77.0649 63.9454 77.8846 61.3233C78.2125 60.5038 79.0321 60.0122 79.8518 60.34C80.6714 60.6677 81.1632 61.4871 80.8354 62.3065C79.5239 66.2397 76.0814 68.6979 71.9831 68.6979Z" fill="#F8BCA7"/>
  <path d="M96.7364 68.6979C92.6381 68.6979 89.1955 66.0758 87.8841 62.3065C87.5562 61.4871 88.048 60.6677 88.8677 60.34C89.6873 60.0122 90.507 60.5038 90.8348 61.3233C91.6545 63.7815 94.1135 65.5842 96.7364 65.5842C99.3593 65.5842 101.818 63.9454 102.638 61.3233C102.966 60.5038 103.785 60.0122 104.605 60.34C105.425 60.6677 105.917 61.4871 105.589 62.3065C104.277 66.2397 100.835 68.6979 96.7364 68.6979Z" fill="#F8BCA7"/>
  <path d="M84.4414 88.7636C86.5238 88.7636 88.2119 87.076 88.2119 84.9943C88.2119 82.9126 86.5238 81.225 84.4414 81.225C82.3591 81.225 80.671 82.9126 80.671 84.9943C80.671 87.076 82.3591 88.7636 84.4414 88.7636Z" fill="#F8BCA7"/>
  <path d="M15.7734 5.54732V0H37.2128V5.54732L22.5836 23.1979H37.465V28.7452H15.0167V23.1979L29.6459 5.54732H15.7734Z" fill="url(#paint2_linear_1_5355)"/>
  <path d="M33.4293 47.1521V43.6219H47.3018V47.1521L37.9694 58.4988H47.554V62.029H32.9248V58.4988L42.2572 47.1521H33.4293Z" fill="url(#paint3_linear_1_5355)"/>
  <defs>
    <linearGradient id="paint0_linear_1_5355" x1="26.2866" y1="19.7507" x2="26.2866" y2="117.46" gradientUnits="userSpaceOnUse">
      <stop offset="0.00289017" stop-color="#FFF0E7"/>
      <stop offset="1" stop-color="#FADAC8"/>
    </linearGradient>
    <linearGradient id="paint1_linear_1_5355" x1="122.017" y1="2.16304" x2="122.017" y2="20.1097" gradientUnits="userSpaceOnUse">
      <stop stop-color="#F8DECF"/>
      <stop offset="1" stop-color="#F9B69E"/>
    </linearGradient>
    <linearGradient id="paint2_linear_1_5355" x1="26.2426" y1="0.998574" x2="26.2426" y2="17.133" gradientUnits="userSpaceOnUse">
      <stop stop-color="#FFF0E7"/>
      <stop offset="1" stop-color="#F9B69F"/>
    </linearGradient>
    <linearGradient id="paint3_linear_1_5355" x1="40.2406" y1="44.2614" x2="40.2406" y2="54.5931" gradientUnits="userSpaceOnUse">
      <stop stop-color="#FFF0E7"/>
      <stop offset="1" stop-color="#F9B69F"/>
    </linearGradient>
  </defs>
</svg>