<svg width="317" height="228" viewBox="0 0 317 228" fill="none" xmlns="http://www.w3.org/2000/svg">
<path d="M264.112 215.171C242.252 210.715 203.896 210.122 179.517 216.271C175.778 217.209 171.411 218.307 166.54 219.44C145.231 224.39 114.323 230.089 84.6416 227.235C76.9206 226.53 69.2778 225.14 61.8034 223.079C19.6381 211.219 -7.55281 156.383 3.12279 115.341C21.7488 43.7306 83.1078 32.8932 130.688 33.7492C178.269 34.6052 261.319 49.6055 299.221 104.217C341.009 164.427 299.221 222.35 264.112 215.171Z" fill="#FFEADD"/>
<path d="M252.907 66.6182H174.575C173.829 66.6182 173.113 66.9147 172.585 67.4425C172.058 67.9702 171.761 68.6861 171.761 69.4325C171.761 70.1789 172.058 70.8947 172.585 71.4225C173.113 71.9503 173.829 72.2468 174.575 72.2468H252.907C253.653 72.2468 254.369 71.9503 254.897 71.4225C255.425 70.8947 255.721 70.1789 255.721 69.4325C255.721 68.6861 255.425 67.9702 254.897 67.4425C254.369 66.9147 253.653 66.6182 252.907 66.6182Z" fill="url(#paint0_linear_1_5493)"/>
<path d="M288.411 184.969C287.905 184.28 286.556 183.635 284.776 182.776C284.776 182.776 284.087 183.313 284.04 183.356C284.04 183.356 284.04 183.4 284.082 183.466L283.817 183.653L283.531 183.356L282.806 183.968C282.806 183.968 283.069 187.633 284.767 187.758C285.372 187.802 285.658 187.427 285.787 186.995C286.547 187.547 287.173 187.582 287.295 187.197C287.352 186.939 287.316 186.669 287.192 186.435C288.458 186.698 288.878 185.6 288.411 184.969Z" fill="url(#paint1_linear_1_5493)"/>
<path d="M187.516 190.225C195.429 190.652 204.939 189.707 204.939 189.707L207.16 193.792L196.184 194.566L187.516 190.225Z" fill="#D39E5F"/>
<path d="M198.862 117.909C195.298 117.909 192.399 114.391 192.399 110.078C192.399 107.088 193.837 104.316 196.062 103.021C196.571 102.739 196.996 102.327 197.293 101.827C197.59 101.326 197.749 100.756 197.753 100.174V82.918C197.753 82.8247 197.79 82.7352 197.856 82.6692C197.922 82.6032 198.012 82.5662 198.105 82.5662H199.627C199.72 82.5662 199.81 82.6032 199.876 82.6692C199.942 82.7352 199.979 82.8247 199.979 82.918V100.174C199.983 100.756 200.142 101.326 200.439 101.827C200.736 102.327 201.161 102.739 201.67 103.021C203.895 104.316 205.333 107.088 205.333 110.078C205.326 114.396 202.427 117.909 198.862 117.909Z" fill="url(#paint2_linear_1_5493)"/>
<path d="M221.337 117.909C216.537 117.909 212.632 114.391 212.632 110.078V82.918C212.632 82.8247 212.669 82.7352 212.735 82.6692C212.801 82.6032 212.89 82.5662 212.984 82.5662H214.506C214.599 82.5662 214.688 82.6032 214.754 82.6692C214.82 82.7352 214.857 82.8247 214.857 82.918V107.309C214.857 107.806 215.055 108.283 215.407 108.635C215.759 108.987 216.236 109.185 216.734 109.185H229.665C229.754 109.185 229.84 109.218 229.905 109.278C229.97 109.338 230.01 109.42 230.017 109.508C230.031 109.691 230.038 109.877 230.038 110.062C230.043 114.396 226.136 117.909 221.337 117.909Z" fill="url(#paint3_linear_1_5493)"/>
<path d="M248.228 103.992L245.927 101.722C245.513 101.312 245.184 100.824 244.959 100.286C244.735 99.7486 244.618 99.1718 244.616 98.589V82.918C244.616 82.8247 244.579 82.7352 244.513 82.6692C244.447 82.6032 244.358 82.5662 244.264 82.5662H242.742C242.649 82.5662 242.56 82.6032 242.494 82.6692C242.428 82.7352 242.391 82.8247 242.391 82.918V98.589C242.389 99.1718 242.272 99.7486 242.047 100.286C241.822 100.824 241.493 101.312 241.08 101.722L238.779 103.992C238.339 104.429 237.989 104.948 237.75 105.52C237.511 106.092 237.387 106.705 237.386 107.325V115.341C237.386 115.434 237.423 115.524 237.489 115.59C237.555 115.656 237.644 115.693 237.738 115.693H249.264C249.358 115.693 249.447 115.656 249.513 115.59C249.579 115.524 249.616 115.434 249.616 115.341V107.325C249.615 106.706 249.492 106.092 249.254 105.52C249.016 104.949 248.667 104.429 248.228 103.992Z" fill="url(#paint4_linear_1_5493)"/>
<path d="M198.863 67.2231C198.131 67.2238 197.43 67.5145 196.913 68.0316C196.396 68.5487 196.105 69.2499 196.105 69.9812V83.5555C196.105 83.6488 196.142 83.7383 196.208 83.8043C196.274 83.8702 196.363 83.9073 196.457 83.9073H201.269C201.362 83.9073 201.452 83.8702 201.518 83.8043C201.584 83.7383 201.621 83.6488 201.621 83.5555V69.9812C201.62 69.2499 201.329 68.5487 200.812 68.0316C200.295 67.5145 199.594 67.2238 198.863 67.2231Z" fill="url(#paint5_linear_1_5493)"/>
<path d="M243.504 67.2231C242.773 67.2238 242.072 67.5145 241.555 68.0316C241.038 68.5487 240.747 69.2499 240.746 69.9812V83.5555C240.746 83.6488 240.784 83.7383 240.849 83.8043C240.915 83.8702 241.005 83.9073 241.098 83.9073H245.911C246.004 83.9073 246.094 83.8702 246.159 83.8043C246.225 83.7383 246.263 83.6488 246.263 83.5555V69.9812C246.262 69.2499 245.971 68.5487 245.454 68.0316C244.937 67.5145 244.236 67.2238 243.504 67.2231Z" fill="url(#paint6_linear_1_5493)"/>
<path d="M213.743 67.2231C213.012 67.2238 212.311 67.5145 211.794 68.0316C211.277 68.5487 210.986 69.2499 210.985 69.9812V83.5555C210.985 83.6488 211.022 83.7383 211.088 83.8043C211.154 83.8702 211.244 83.9073 211.337 83.9073H216.15C216.243 83.9073 216.332 83.8702 216.398 83.8043C216.464 83.7383 216.501 83.6488 216.501 83.5555V69.9812C216.501 69.2499 216.21 68.5487 215.693 68.0316C215.176 67.5145 214.475 67.2238 213.743 67.2231Z" fill="url(#paint7_linear_1_5493)"/>
<path d="M153.726 41.3996C153.726 41.3996 152.272 53.3275 151.327 57.9102C148.66 70.8349 145.616 75.985 142.199 79.0034C138.782 82.0217 134.343 81.8036 134.343 81.8036C134.343 81.8036 133.268 83.525 131.852 85.8023C129.12 90.1926 125.105 96.6444 125.032 96.7875C124.924 97.0056 104.159 80.7858 104.159 80.7858C107.761 70.6027 109.145 60.4548 109.145 60.4548C103.901 57.7249 104.579 52.1314 108.758 51.2496C108.577 47.2795 108.767 43.3012 109.323 39.3662L116.099 39.6758L153.726 41.3996Z" fill="#FFD2A8"/>
<path d="M117.876 57.6218C117.273 55.6073 113.045 50.6236 108.755 51.2474C108.575 47.2773 108.764 43.299 109.321 39.364L116.098 39.6759C120.418 42.0704 124.879 44.5353 124.879 44.5353C125.125 53.5458 117.876 57.6218 117.876 57.6218Z" fill="url(#paint8_linear_1_5493)"/>
<path d="M160.621 11.6803L155.614 35.0859L152.919 47.7105C152.919 47.7105 149.572 49.65 137.841 49.0519C126.11 48.4539 113.845 44.1855 109.328 39.366C109.495 38.0761 109.662 36.8089 109.83 35.5644C109.952 34.6482 110.075 33.7445 110.2 32.8533C110.313 32.0387 110.425 31.2366 110.538 30.447C110.571 30.2125 110.601 30.0038 110.634 29.7857C110.82 28.4864 111.005 27.2207 111.19 25.9887C111.631 23.036 112.062 20.2897 112.47 17.7803C112.531 17.4051 112.592 17.0368 112.651 16.6733C112.71 16.3098 112.771 15.951 112.829 15.5992C112.888 15.2474 112.946 14.8956 113.003 14.5603L113.256 13.0616C113.324 12.6676 113.39 12.283 113.455 11.9078C113.493 11.6897 113.53 11.4716 113.568 11.2581C113.568 11.2323 113.568 11.2089 113.568 11.1854C113.601 10.9955 113.634 10.8102 113.666 10.6249C113.776 9.99952 113.881 9.40304 113.983 8.83549L114.053 8.44383C114.089 8.24918 114.121 8.05686 114.157 7.86924C114.344 6.83029 114.515 5.90158 114.666 5.09012C114.689 4.97051 114.71 4.85559 114.734 4.73833C114.757 4.62107 114.785 4.4569 114.811 4.32088C115 3.32443 115.498 2.41278 116.234 1.71525C116.97 1.01772 117.908 0.569717 118.913 0.434784C129.832 -1.05914 148.932 1.40806 158.201 6.41988C159.118 6.91726 159.85 7.69869 160.287 8.64706C160.723 9.59543 160.84 10.6597 160.621 11.6803Z" fill="url(#paint9_linear_1_5493)"/>
<path d="M134.342 81.8036C134.342 81.8036 133.268 83.525 131.852 85.8022C122.236 84.7703 119.94 76.6558 119.356 74.348C118.681 71.6885 119.046 65.49 119.046 65.49C121.795 78.1051 128.456 81.623 134.342 81.8036Z" fill="#D39E5F"/>
<path d="M186.59 186.446C180.835 196.876 171.63 200.753 168.679 200.689C165.729 200.626 165.161 198.173 165.161 198.173C165.532 203.534 166.1 212.244 166.547 219.437C145.238 224.388 114.33 230.087 84.6488 227.233C85.146 222.099 86.0372 217.96 86.2553 214.355C86.3913 212.127 86.3632 207.976 86.2764 203.677C86.131 196.597 85.8238 189.108 85.8238 189.108L80.3171 187.985L80.1693 187.954L76.0487 187.115C69.7775 194.202 60.373 200.283 54.0713 194.418C47.9737 188.742 39.2962 178.902 37.3731 173.592C35.45 168.282 36.435 158.557 38.1822 155.032C39.9294 151.507 55.0868 121.009 61.5855 108.596C67.2142 97.8403 72.8428 93.7596 75.9948 92.1461C76.4779 91.8975 76.9001 91.7075 77.2565 91.5621C79.9325 90.4575 97.6462 86.3392 97.8573 86.2102C99.0158 80.2509 99.3019 78.5647 99.8953 76.5689C100.416 74.8217 103.148 73.8906 106.413 73.4849C106.319 73.8367 106.22 74.1884 106.12 74.5496C105.787 75.7433 105.416 76.9676 105.027 78.2082C107.606 78.9751 119.227 82.1318 120.974 84.1112C122.56 85.8983 122.532 88.9495 122.532 88.9495H128.095C127.837 80.7997 134.345 81.7894 134.345 81.7894L134.732 87.0287C134.732 87.0287 146.671 88.2529 151.132 90.9125C155.593 93.572 161.346 101.128 164.655 114.937C167.964 128.746 171.344 150.039 174.868 158.815C178.393 167.591 184.507 169.46 186.595 173.991C188.682 178.522 186.59 186.446 186.59 186.446Z" fill="url(#paint10_linear_1_5493)"/>
<path d="M80.1623 187.955L76.0417 187.115C69.7704 194.202 60.366 200.284 54.0643 194.418C47.9666 188.743 39.2891 178.902 37.366 173.592C35.4429 168.283 36.4279 158.557 38.1752 155.032C39.9224 151.507 55.0798 121.009 61.5785 108.596C67.2071 97.8405 72.8357 93.7598 75.9877 92.1462C82.7702 96.5483 89.5151 104.013 90.2938 116.429C91.3538 133.343 84.7988 166.875 80.1623 187.955Z" fill="url(#paint11_linear_1_5493)"/>
<path d="M103.697 89.0624H103.629C103.453 89.0295 99.323 88.2204 97.5992 86.4826C97.5374 86.4156 97.5039 86.3272 97.5059 86.2361C97.508 86.1449 97.5453 86.0581 97.6101 85.994C97.6748 85.9298 97.762 85.8933 97.8532 85.8921C97.9443 85.891 98.0324 85.9252 98.0988 85.9877C99.6701 87.5755 103.727 88.3682 103.76 88.3752C103.806 88.3795 103.851 88.3929 103.892 88.4145C103.933 88.4362 103.97 88.4657 103.999 88.5014C104.029 88.5372 104.051 88.5784 104.065 88.6227C104.079 88.667 104.083 88.7136 104.079 88.7598C104.075 88.806 104.061 88.8509 104.04 88.8919C104.018 88.933 103.989 88.9693 103.953 88.999C103.917 89.0286 103.876 89.0509 103.832 89.0646C103.787 89.0783 103.741 89.0831 103.695 89.0788L103.697 89.0624Z" fill="#C5E0E2"/>
<path d="M186.59 186.449C180.835 196.878 171.629 200.755 168.679 200.692C165.916 200.624 165.236 198.471 165.161 198.203V198.175C165.532 203.537 166.099 212.247 166.547 219.44C155.63 221.975 142.192 224.709 127.691 226.386C127.356 188.682 117.513 158.278 116.542 153.88C110.965 128.662 109.185 107.341 108.19 100.35C107.196 93.3587 107.149 88.9637 107.149 88.9637H128.092C127.834 80.814 134.342 81.8037 134.342 81.8037L134.729 87.043C134.729 87.043 142.396 87.8286 147.738 89.5102C148.917 89.8523 150.055 90.3242 151.13 90.9173C155.585 93.5792 161.343 101.133 164.652 114.942C167.961 128.751 171.341 150.044 174.866 158.82C178.391 167.595 184.505 169.465 186.592 173.996C188.679 178.527 186.59 186.449 186.59 186.449Z" fill="url(#paint12_linear_1_5493)"/>
<path d="M127.684 226.738C127.591 226.738 127.502 226.702 127.436 226.636C127.37 226.571 127.333 226.482 127.332 226.389C127.332 226.168 127.332 225.949 127.332 225.73C126.948 193.365 119.469 166.024 117.013 157.042C116.617 155.593 116.331 154.547 116.199 153.956C111.771 133.948 109.701 116.089 108.594 106.495C108.293 103.896 108.054 101.844 107.85 100.397C106.865 93.4551 106.807 89.0085 106.807 88.9639C106.806 88.9173 106.815 88.8711 106.832 88.8278C106.849 88.7846 106.875 88.7453 106.908 88.7121C106.941 88.679 106.98 88.6526 107.023 88.6346C107.066 88.6167 107.112 88.6074 107.158 88.6074H131.676C131.769 88.6074 131.858 88.6445 131.924 88.7105C131.99 88.7764 132.027 88.8659 132.027 88.9592C132.027 89.0525 131.99 89.142 131.924 89.208C131.858 89.2739 131.769 89.311 131.676 89.311H107.52C107.664 92.9913 108.005 96.6614 108.54 100.306C108.746 101.762 108.985 103.823 109.285 106.42C110.397 116 112.466 133.836 116.877 153.808C117.004 154.38 117.287 155.421 117.682 156.857C120.144 165.86 127.642 193.257 128.029 225.72C128.029 225.941 128.029 226.161 128.029 226.382C128.029 226.428 128.02 226.474 128.003 226.517C127.985 226.559 127.96 226.598 127.927 226.631C127.895 226.664 127.856 226.69 127.814 226.708C127.771 226.726 127.726 226.736 127.679 226.736L127.684 226.738Z" fill="#C5E0E2"/>
<path d="M114.112 97.315C115.077 97.315 115.859 96.5327 115.859 95.5678C115.859 94.6028 115.077 93.8206 114.112 93.8206C113.147 93.8206 112.365 94.6028 112.365 95.5678C112.365 96.5327 113.147 97.315 114.112 97.315Z" fill="#0D998B"/>
<path d="M136.047 96.4756C137.012 96.4756 137.795 95.6934 137.795 94.7284C137.795 93.7634 137.012 92.9812 136.047 92.9812C135.082 92.9812 134.3 93.7634 134.3 94.7284C134.3 95.6934 135.082 96.4756 136.047 96.4756Z" fill="#0D998B"/>
<path d="M118.561 119.935C119.526 119.935 120.308 119.153 120.308 118.188C120.308 117.223 119.526 116.441 118.561 116.441C117.596 116.441 116.814 117.223 116.814 118.188C116.814 119.153 117.596 119.935 118.561 119.935Z" fill="#0D998B"/>
<path d="M140.027 119.098C140.992 119.098 141.774 118.316 141.774 117.351C141.774 116.386 140.992 115.604 140.027 115.604C139.062 115.604 138.28 116.386 138.28 117.351C138.28 118.316 139.062 119.098 140.027 119.098Z" fill="#0D998B"/>
<path d="M124.408 147.283C125.373 147.283 126.155 146.501 126.155 145.536C126.155 144.571 125.373 143.789 124.408 143.789C123.443 143.789 122.661 144.571 122.661 145.536C122.661 146.501 123.443 147.283 124.408 147.283Z" fill="#0D998B"/>
<path d="M144.739 145.029C145.704 145.029 146.486 144.247 146.486 143.282C146.486 142.317 145.704 141.535 144.739 141.535C143.774 141.535 142.992 142.317 142.992 143.282C142.992 144.247 143.774 145.029 144.739 145.029Z" fill="#0D998B"/>
<path d="M131.971 173.705C132.936 173.705 133.719 172.923 133.719 171.958C133.719 170.993 132.936 170.21 131.971 170.21C131.006 170.21 130.224 170.993 130.224 171.958C130.224 172.923 131.006 173.705 131.971 173.705Z" fill="#0D998B"/>
<path d="M150.426 171.453C151.391 171.453 152.173 170.671 152.173 169.706C152.173 168.741 151.391 167.959 150.426 167.959C149.461 167.959 148.679 168.741 148.679 169.706C148.679 170.671 149.461 171.453 150.426 171.453Z" fill="#0D998B"/>
<path d="M136.552 204.144C137.516 204.144 138.299 203.362 138.299 202.397C138.299 201.432 137.516 200.65 136.552 200.65C135.587 200.65 134.804 201.432 134.804 202.397C134.804 203.362 135.587 204.144 136.552 204.144Z" fill="#0D998B"/>
<path d="M156.404 201.89C157.369 201.89 158.151 201.108 158.151 200.143C158.151 199.178 157.369 198.396 156.404 198.396C155.439 198.396 154.657 199.178 154.657 200.143C154.657 201.108 155.439 201.89 156.404 201.89Z" fill="#0D998B"/>
<path d="M186.59 186.449C180.835 196.878 171.63 200.755 168.679 200.692C165.917 200.624 165.236 198.471 165.161 198.203V198.175C163.243 179.483 160.485 169.251 158.008 156.953C155.532 144.654 153.135 131.31 151.486 123.136C149.837 114.963 149.085 113.08 149.387 107.916C149.856 99.8854 149.207 93.239 147.745 89.51C148.924 89.8521 150.062 90.3241 151.137 90.9172C155.593 93.579 161.35 101.133 164.659 114.942C167.969 128.751 171.348 150.043 174.873 158.819C178.398 167.595 184.512 169.464 186.599 173.996C188.687 178.527 186.59 186.449 186.59 186.449Z" fill="url(#paint13_linear_1_5493)"/>
<path d="M189.7 184.969C189.367 187.875 182.795 190.398 182.795 190.398C182.275 190.989 181.74 191.571 181.198 192.117C175.164 198.288 168.182 201.888 166.658 198.168C165.745 195.952 166.836 192.516 168.637 189.153C169.047 188.381 169.5 187.612 169.969 186.864C171.123 185.033 172.419 183.295 173.846 181.667C178.027 176.96 182.992 174.162 185.42 174.969C185.617 175.04 185.801 175.142 185.966 175.272C187.913 176.761 190.005 182.328 189.7 184.969Z" fill="url(#paint14_linear_1_5493)"/>
<path d="M211.611 196.175C211.398 197.652 208.525 199.137 206.806 195.133C205.736 192.645 205.07 190.569 205.07 190.569C205.07 190.569 197.331 191.493 190.499 190.975C182.291 191.35 183.339 193.227 181.841 192.443C181.707 192.373 181.489 192.265 181.198 192.124C179.864 191.477 177.047 190.159 174.352 188.907L169.964 186.871C171.118 185.039 172.414 183.302 173.841 181.674C178.023 176.967 182.987 174.169 185.415 174.976L185.961 175.278C188.288 176.571 191.393 178.327 193.466 179.516L195.713 180.799C195.877 180.905 196.522 181.045 197.408 181.198C199.643 181.582 203.408 182.054 204.796 182.298C206.735 182.638 208.607 183.114 209.458 186.519C210.31 189.924 211.895 194.2 211.611 196.175Z" fill="#FFD2A8"/>
<path d="M235.634 207.484L221.314 204.812C211.717 203.03 200.42 200.936 198.058 200.535C193.799 199.812 180.483 198.248 178.494 196.119C176.264 193.731 180.811 189.711 185.793 190.08C187.753 190.225 196.581 191.681 206.058 193.307C206.276 193.869 206.527 194.479 206.806 195.138C208.525 199.142 211.398 197.657 211.612 196.18C211.671 195.534 211.635 194.882 211.504 194.247C216.562 195.124 221.478 195.987 225.322 196.665C229.872 197.469 232.916 198.014 232.916 198.014L235.634 207.484Z" fill="url(#paint15_linear_1_5493)"/>
<path d="M165.154 198.525C165.067 198.524 164.983 198.492 164.918 198.434C164.854 198.375 164.813 198.295 164.805 198.208C163.299 183.557 161.259 174.012 159.284 164.781C158.747 162.267 158.191 159.671 157.659 157.023C156.31 150.32 154.971 143.238 153.789 136.987C152.811 131.811 151.885 126.922 151.136 123.204C150.951 122.29 150.782 121.455 150.625 120.686C149.382 114.588 148.962 112.543 149.03 107.909C149.032 107.816 149.069 107.728 149.135 107.663C149.201 107.598 149.29 107.562 149.382 107.562C149.428 107.562 149.474 107.572 149.516 107.59C149.559 107.608 149.597 107.635 149.63 107.668C149.662 107.701 149.687 107.74 149.704 107.783C149.721 107.826 149.73 107.872 149.729 107.918C149.664 112.475 150.079 114.508 151.31 120.545C151.467 121.316 151.638 122.151 151.821 123.066C152.572 126.788 153.498 131.678 154.476 136.856C155.649 143.104 156.997 150.184 158.346 156.885C158.878 159.528 159.434 162.124 159.971 164.624C161.95 173.874 163.996 183.438 165.504 198.126C165.508 198.172 165.504 198.219 165.491 198.263C165.478 198.307 165.456 198.349 165.427 198.385C165.398 198.421 165.362 198.45 165.321 198.472C165.28 198.494 165.235 198.508 165.189 198.513L165.154 198.525Z" fill="#C5E0E2"/>
<path d="M163.283 122.785C163.283 122.785 151.77 136.068 149.999 141.249C147.666 148.074 151.059 151.085 150.994 152.598C150.937 153.927 140.365 164.927 130.688 174.95C125.562 180.26 120.688 185.293 117.761 188.473L124.094 194.071C124.094 194.071 129.291 187.34 135.367 179.5C143.726 168.712 153.752 155.836 154.2 155.499C154.976 154.917 160.37 158.571 166.395 154.07C173.023 149.113 178.949 139.736 181.276 136.312L163.283 122.785ZM157.553 140.571C157.316 140.571 157.086 140.488 156.904 140.337C156.693 140.164 156.56 139.915 156.533 139.644C156.506 139.373 156.588 139.103 156.761 138.892L161.864 132.67C162.036 132.46 162.286 132.327 162.556 132.3C162.827 132.273 163.097 132.355 163.307 132.528C163.518 132.701 163.651 132.95 163.677 133.22C163.704 133.491 163.622 133.761 163.449 133.972L158.346 140.189C158.251 140.308 158.13 140.404 157.993 140.47C157.856 140.536 157.706 140.571 157.553 140.571ZM160.166 145.66C159.971 145.661 159.781 145.607 159.616 145.503C159.452 145.399 159.32 145.251 159.237 145.075C159.154 144.9 159.122 144.704 159.146 144.511C159.17 144.318 159.249 144.136 159.373 143.986L167.366 134.248C167.451 134.144 167.556 134.058 167.675 133.994C167.793 133.931 167.923 133.891 168.057 133.878C168.191 133.865 168.327 133.878 168.455 133.917C168.584 133.956 168.704 134.02 168.808 134.105C168.912 134.191 168.999 134.296 169.062 134.414C169.126 134.533 169.165 134.663 169.178 134.797C169.192 134.931 169.178 135.066 169.14 135.195C169.101 135.324 169.037 135.443 168.951 135.548L160.959 145.287C160.862 145.404 160.741 145.499 160.604 145.563C160.467 145.628 160.317 145.661 160.166 145.66ZM166.461 146.856C166.288 147.067 166.039 147.2 165.768 147.226C165.498 147.253 165.227 147.171 165.017 146.998C164.807 146.826 164.674 146.577 164.647 146.306C164.621 146.035 164.703 145.765 164.875 145.555L169.978 139.337C170.151 139.127 170.4 138.994 170.671 138.968C170.942 138.941 171.212 139.023 171.422 139.196C171.632 139.368 171.765 139.617 171.792 139.888C171.819 140.159 171.736 140.429 171.564 140.639L166.461 146.856Z" fill="url(#paint16_linear_1_5493)"/>
<path d="M160.621 11.6806L155.614 35.0862L155.292 35.1308L155.088 35.1566L154.788 35.1941L154.554 35.2223L154.272 35.2527L153.531 35.3254C152.621 35.4075 151.615 35.4662 150.515 35.4943H150.121C146.242 35.5647 141.226 35.2293 135.036 34.0121L134.244 33.855L133.01 33.604L132.201 33.4352L131.549 33.2968L131.08 33.1936C130.455 33.0576 129.838 32.92 129.23 32.7808L128.383 32.5838L127.898 32.4666L127.464 32.361L126.678 32.1664C125.526 31.8732 124.429 31.5754 123.378 31.2682L122.698 31.0665L122.576 31.0289L121.943 30.8319L121.868 30.8085L121.136 30.574C120.714 30.4356 120.301 30.2925 119.896 30.1495L119.384 29.9642C119.023 29.8352 118.681 29.6992 118.32 29.5655L117.705 29.331L117.133 29.0964C116.454 28.8103 115.797 28.514 115.16 28.2076C115.024 28.1443 114.888 28.0763 114.755 28.0106L114.455 27.8582C114.075 27.6658 113.701 27.4688 113.334 27.2671L112.947 27.0514C112.351 26.7137 111.774 26.3642 111.202 25.9984C111.643 23.0457 112.074 20.2994 112.482 17.79C112.543 17.4147 112.604 17.0465 112.663 16.683C112.721 16.3195 112.782 15.9607 112.841 15.6089C112.9 15.2571 112.958 14.9053 113.015 14.5699L113.268 13.0713C113.336 12.6797 113.402 12.295 113.467 11.9174C113.505 11.6993 113.542 11.4812 113.58 11.2678C113.58 11.242 113.58 11.2186 113.58 11.1951C113.615 11.0051 113.645 10.8175 113.678 10.6346C113.788 10.0092 113.893 9.41271 113.995 8.84516L114.065 8.4535C114.1 8.25885 114.133 8.06653 114.168 7.87891C114.356 6.83996 114.527 5.91124 114.677 5.09978C114.701 4.98018 114.722 4.86526 114.745 4.74799C114.769 4.63073 114.797 4.46656 114.823 4.33054C114.974 3.52841 115.326 2.77771 115.846 2.14857C116.366 1.51942 117.037 1.03237 117.797 0.732918C118.155 0.592492 118.529 0.494882 118.911 0.442108C129.83 -1.05182 148.93 1.41539 158.198 6.4272C159.117 6.92432 159.85 7.70531 160.288 8.65346C160.726 9.60161 160.845 10.666 160.628 11.6876L160.621 11.6806Z" fill="url(#paint17_linear_1_5493)"/>
<path d="M119.272 30.2855H119.246C119.153 30.2789 119.066 30.2357 119.005 30.1653C118.944 30.095 118.913 30.0033 118.92 29.9103C119.555 20.7075 121.807 9.21574 121.83 9.10082C121.837 9.05375 121.854 9.00859 121.879 8.96807C121.904 8.92754 121.937 8.8925 121.975 8.86508C122.014 8.83765 122.058 8.8184 122.105 8.80849C122.152 8.79858 122.2 8.79822 122.246 8.80743C122.293 8.81664 122.337 8.83524 122.377 8.86208C122.416 8.88893 122.449 8.92347 122.475 8.96361C122.5 9.00376 122.518 9.04867 122.525 9.09564C122.533 9.1426 122.531 9.19065 122.52 9.23685C122.496 9.35177 120.254 20.799 119.621 29.9572C119.615 30.046 119.576 30.1292 119.511 30.1901C119.446 30.251 119.361 30.2851 119.272 30.2855Z" fill="#C5E0E2"/>
<path d="M128.683 33.0175H128.648C128.555 33.008 128.47 32.9622 128.411 32.8901C128.352 32.818 128.324 32.7255 128.334 32.6329C128.681 29.1595 129.846 17.309 130.32 10.6742C130.327 10.5809 130.37 10.494 130.441 10.4327C130.511 10.3713 130.603 10.3405 130.696 10.3471C130.79 10.3536 130.877 10.3969 130.938 10.4675C130.999 10.5381 131.03 10.6302 131.024 10.7235C130.555 17.3676 129.382 29.2252 129.037 32.7009C129.028 32.7883 128.987 32.8694 128.922 32.928C128.856 32.9866 128.771 33.0185 128.683 33.0175Z" fill="#C5E0E2"/>
<path d="M137.056 34.7462H137C136.908 34.7312 136.825 34.6803 136.771 34.6047C136.716 34.5291 136.694 34.4349 136.709 34.3428C137.178 31.3503 138.35 23.0856 138.787 11.0357C138.788 10.9895 138.799 10.944 138.818 10.902C138.838 10.86 138.865 10.8222 138.899 10.7907C138.933 10.7592 138.972 10.7347 139.016 10.7186C139.059 10.7025 139.105 10.6951 139.151 10.6968C139.198 10.6985 139.243 10.7092 139.285 10.7285C139.327 10.7477 139.365 10.7751 139.396 10.8089C139.428 10.8428 139.452 10.8825 139.468 10.9258C139.484 10.9692 139.492 11.0153 139.49 11.0615C139.052 23.1513 137.884 31.4488 137.403 34.453C137.389 34.535 137.347 34.6095 137.283 34.6632C137.22 34.7168 137.139 34.7463 137.056 34.7462Z" fill="#C5E0E2"/>
<path d="M144.53 35.6842C144.505 35.6868 144.48 35.6868 144.455 35.6842C144.41 35.6742 144.367 35.6554 144.329 35.6289C144.291 35.6023 144.259 35.5686 144.234 35.5296C144.21 35.4907 144.193 35.4472 144.185 35.4016C144.177 35.3561 144.178 35.3095 144.188 35.2643C144.983 31.6433 146.481 23.9391 147.602 13.0407C147.607 12.9945 147.621 12.9497 147.643 12.9088C147.665 12.868 147.695 12.8319 147.731 12.8026C147.767 12.7733 147.809 12.7514 147.853 12.7381C147.898 12.7249 147.944 12.7205 147.991 12.7253C148.037 12.73 148.082 12.7439 148.122 12.766C148.163 12.788 148.199 12.818 148.229 12.854C148.258 12.89 148.28 12.9315 148.293 12.976C148.306 13.0205 148.311 13.0672 148.306 13.1134C147.183 24.047 145.675 31.7793 144.877 35.4168C144.858 35.494 144.813 35.5625 144.75 35.6111C144.687 35.6597 144.61 35.6854 144.53 35.6842Z" fill="#C5E0E2"/>
<path d="M152.286 35.7709C152.234 35.7709 152.182 35.7593 152.135 35.7369C152.088 35.7146 152.046 35.682 152.013 35.6416C151.98 35.6012 151.957 35.554 151.944 35.5033C151.932 35.4526 151.931 35.3999 151.941 35.3487C152.806 31.1273 154.052 24.1314 155.004 14.7902C155.014 14.6969 155.06 14.6113 155.133 14.5521C155.205 14.493 155.299 14.4651 155.392 14.4748C155.485 14.4844 155.571 14.5307 155.63 14.6035C155.689 14.6763 155.717 14.7696 155.707 14.8629C154.744 24.2439 153.503 31.2516 152.635 35.5012C152.616 35.5793 152.572 35.6486 152.508 35.6976C152.444 35.7467 152.366 35.7726 152.286 35.7709Z" fill="#C5E0E2"/>
<path d="M138.945 58.173C139.203 57.1907 138.876 56.2541 138.216 56.0808C137.556 55.9076 136.812 56.5635 136.554 57.5457C136.296 58.5279 136.623 59.4646 137.283 59.6378C137.943 59.8111 138.687 59.1552 138.945 58.173Z" fill="#654B1E"/>
<path d="M150.222 57.3739C150.456 56.4819 150.161 55.6314 149.562 55.4743C148.963 55.3172 148.288 55.913 148.054 56.805C147.82 57.697 148.115 58.5475 148.714 58.7046C149.313 58.8617 149.988 58.266 150.222 57.3739Z" fill="#654B1E"/>
<path d="M129.961 54.7113C129.864 54.7115 129.768 54.6811 129.688 54.6243C129.609 54.5675 129.549 54.4872 129.517 54.3947C129.485 54.3021 129.483 54.202 129.511 54.1082C129.539 54.0144 129.596 53.9317 129.673 53.8717C134.314 50.2389 140.663 50.851 142.337 52.5607C142.424 52.6497 142.473 52.7696 142.471 52.894C142.47 53.0185 142.419 53.1374 142.33 53.2244C142.241 53.3115 142.121 53.3597 141.997 53.3584C141.873 53.3571 141.754 53.3063 141.667 53.2174C140.461 51.9861 134.603 51.2052 130.252 54.6105C130.169 54.6758 130.067 54.7114 129.961 54.7113Z" fill="#654B1E"/>
<path d="M147.443 52.875C147.344 52.8755 147.248 52.8449 147.168 52.7875C147.088 52.7302 147.028 52.6489 146.996 52.5554C146.965 52.4619 146.964 52.3609 146.993 52.2667C147.022 52.1725 147.08 52.0899 147.159 52.0307C149.019 50.6236 150.818 50.1967 151.51 50.1545C151.634 50.1489 151.756 50.193 151.848 50.277C151.94 50.361 151.994 50.4781 152 50.6025C152.006 50.7269 151.961 50.8484 151.877 50.9403C151.793 51.0322 151.676 51.087 151.552 51.0926C150.865 51.1231 149.279 51.5969 147.725 52.7695C147.645 52.8346 147.546 52.8717 147.443 52.875Z" fill="#654B1E"/>
<path d="M145.454 67.324C144.437 67.2963 143.465 66.9024 142.715 66.2147C142.68 66.1839 142.652 66.1466 142.632 66.1048C142.612 66.0631 142.6 66.0178 142.597 65.9716C142.594 65.9253 142.601 65.8789 142.616 65.8351C142.631 65.7913 142.655 65.751 142.686 65.7163C142.717 65.6817 142.754 65.6534 142.796 65.6332C142.837 65.613 142.883 65.6011 142.929 65.5984C142.975 65.5957 143.021 65.6021 143.065 65.6173C143.109 65.6325 143.149 65.6562 143.184 65.687C144.169 66.5571 145.471 66.8596 146.421 66.4211C147.239 66.0505 147.692 65.2086 147.689 64.0453C147.689 62.4036 147.087 61.231 146.557 60.185C146.195 59.4814 145.883 58.8646 145.822 58.2267C145.818 58.1805 145.823 58.1339 145.837 58.0896C145.85 58.0453 145.873 58.0041 145.902 57.9684C145.962 57.8962 146.048 57.8508 146.141 57.8421C146.235 57.8334 146.328 57.8621 146.4 57.9219C146.472 57.9817 146.517 58.0678 146.526 58.1611C146.573 58.6653 146.859 59.2211 147.187 59.8661C147.727 60.9214 148.398 62.2371 148.398 64.0477C148.398 65.4806 147.783 66.5805 146.714 67.0637C146.317 67.2395 145.888 67.3283 145.454 67.324Z" fill="#BB8A52"/>
<path d="M140.703 72.3664C139.342 72.3664 136.756 72.0427 135.142 69.8006C135.106 69.7506 135.08 69.6939 135.066 69.6339C135.052 69.5739 135.05 69.5117 135.06 69.4508C135.07 69.3899 135.091 69.3316 135.124 69.2792C135.156 69.2267 135.199 69.1812 135.249 69.1451C135.299 69.1091 135.356 69.0833 135.416 69.0692C135.476 69.055 135.538 69.0528 135.599 69.0627C135.66 69.0726 135.718 69.0944 135.77 69.1269C135.823 69.1593 135.868 69.2018 135.904 69.2519C137.642 71.6675 140.778 71.4587 141.387 71.3931C141.512 71.3797 141.637 71.4163 141.734 71.4948C141.831 71.5733 141.894 71.6873 141.907 71.8117C141.92 71.9361 141.884 72.0607 141.805 72.1581C141.727 72.2556 141.613 72.3178 141.488 72.3312C141.227 72.3567 140.965 72.3685 140.703 72.3664Z" fill="#BB8A52"/>
<path d="M115.899 59.2022C115.837 59.2023 115.777 59.186 115.723 59.1552C115.67 59.1243 115.625 59.0798 115.594 59.0263C113.195 54.8658 109.731 54.235 108.42 54.5703C108.376 54.5822 108.329 54.5852 108.283 54.579C108.237 54.5729 108.193 54.5578 108.153 54.5346C108.113 54.5114 108.078 54.4806 108.05 54.4438C108.022 54.4071 108.002 54.3652 107.99 54.3206C107.978 54.2759 107.975 54.2294 107.981 54.1836C107.987 54.1378 108.002 54.0936 108.026 54.0537C108.049 54.0137 108.08 53.9787 108.116 53.9507C108.153 53.9226 108.195 53.9021 108.24 53.8902C109.987 53.4212 113.695 54.31 116.213 58.6628C116.244 58.7163 116.261 58.777 116.261 58.8388C116.261 58.9005 116.244 58.9612 116.213 59.0147C116.182 59.0682 116.138 59.1126 116.085 59.1435C116.031 59.1743 115.97 59.1905 115.909 59.1905L115.899 59.2022Z" fill="#BB8A52"/>
<path d="M112.154 59.3642C111.768 59.3827 111.384 59.3042 111.036 59.1358C110.689 58.9674 110.389 58.7145 110.165 58.4003C109.893 57.9911 109.753 57.5087 109.762 57.0175C109.772 56.5264 109.931 56.0498 110.219 55.6516C110.796 54.8871 111.757 54.6572 112.855 55.0254C112.943 55.0565 113.016 55.1214 113.056 55.2059C113.096 55.2903 113.102 55.3874 113.071 55.4757C113.04 55.564 112.975 55.6364 112.89 55.6769C112.806 55.7173 112.709 55.7226 112.62 55.6915C111.818 55.4218 111.159 55.5578 110.77 56.0738C110.571 56.3545 110.462 56.6885 110.456 57.0323C110.449 57.376 110.547 57.7138 110.735 58.0016C111.173 58.6418 112.011 58.8224 113.094 58.5128C113.182 58.4936 113.273 58.5084 113.35 58.5544C113.427 58.6003 113.484 58.6739 113.508 58.7601C113.533 58.8462 113.523 58.9385 113.482 59.0181C113.441 59.0977 113.371 59.1585 113.286 59.1883C112.919 59.2987 112.538 59.3579 112.154 59.3642Z" fill="#BB8A52"/>
<path d="M106.112 74.564C105.779 75.7577 105.409 76.9819 105.02 78.2226C99.9866 77.4158 100.81 74.8595 106.112 74.564Z" fill="url(#paint18_linear_1_5493)"/>
<path d="M75.854 185.161C68.5274 192.558 60.4269 198.123 56.4822 194.179C52.5375 190.234 56.7636 179.669 63.0325 172.412C69.3013 165.156 76.3465 163.606 78.8817 165.297L75.854 185.161Z" fill="url(#paint19_linear_1_5493)"/>
<path d="M86.3817 170.712C84.74 169.54 83.2109 168.426 81.9586 167.523C83.3001 165.658 81.8577 162.771 79.3788 159.289C85.65 143.106 89.712 134.478 90.4367 126.575C90.7189 123.616 90.7189 120.638 90.4367 117.679C91.1402 118.46 92.47 121.134 92.7209 126.826C92.9461 131.859 87.1299 156.768 86.3817 170.712Z" fill="url(#paint20_linear_1_5493)"/>
<path d="M130.334 199.327C129.469 200.938 127.954 201.156 123.552 198.705C125.269 201.709 122.236 204.993 119.41 203.117C120.114 205.023 117.874 207.992 114.107 205.771C114.107 205.771 113.62 207.291 109.996 206.327C106.373 205.363 95.1038 198.628 93.0939 197.239C91.084 195.851 80.5398 190.218 77.9694 188.66C77.4065 188.318 76.0932 187.579 74.3624 186.632C71.3135 184.948 66.9866 182.607 63.4218 180.672C61.6347 179.702 60.0352 178.831 58.8813 178.198C60.093 176.151 61.4829 174.215 63.0348 172.412C68.6892 165.869 74.9721 163.97 78.0116 164.908C78.3205 164.998 78.6144 165.133 78.884 165.309C78.884 165.309 98.1151 179.261 98.9383 179.594C99.7615 179.927 111.429 178.967 113.125 178.82C114.82 178.672 116.366 179.814 118.753 181.51C121.141 183.205 125.967 184.601 125.967 184.601L121.024 188.475C121.024 188.475 126.436 193.142 128.61 195.021C130.785 196.899 131.054 197.99 130.334 199.327Z" fill="#FFD2A8"/>
<path d="M135.376 179.502C131.178 184.92 127.403 189.808 125.465 192.312L121.009 188.475C121.009 188.475 120.369 188.006 119.154 186.972C120.153 185.905 121.298 184.702 122.543 183.403C124.971 180.863 127.787 177.952 130.684 174.96C129.907 176.74 133.718 180.37 135.376 179.502Z" fill="url(#paint21_linear_1_5493)"/>
<path d="M121.024 188.827C120.947 188.827 120.873 188.803 120.812 188.757C120.798 188.757 119.361 187.659 116.767 185.358C116.697 185.296 116.655 185.209 116.65 185.116C116.645 185.022 116.677 184.931 116.739 184.861C116.801 184.792 116.888 184.749 116.982 184.744C117.075 184.739 117.166 184.771 117.236 184.833C119.816 187.113 121.223 188.184 121.237 188.194C121.296 188.238 121.34 188.3 121.362 188.37C121.384 188.441 121.383 188.517 121.36 188.587C121.336 188.657 121.291 188.718 121.232 188.761C121.172 188.804 121.1 188.827 121.026 188.827H121.024Z" fill="#BB8A52"/>
<path d="M123.552 199.057C123.478 199.057 123.407 199.034 123.348 198.991C119.94 196.576 115.505 193.189 115.461 193.156C115.421 193.129 115.388 193.095 115.362 193.054C115.337 193.014 115.32 192.969 115.312 192.922C115.305 192.875 115.307 192.827 115.319 192.78C115.33 192.734 115.351 192.691 115.38 192.653C115.409 192.615 115.446 192.583 115.487 192.56C115.529 192.536 115.575 192.522 115.622 192.517C115.67 192.512 115.718 192.516 115.763 192.53C115.809 192.544 115.851 192.567 115.887 192.598C115.932 192.631 120.355 196.011 123.753 198.419C123.814 198.462 123.859 198.524 123.883 198.595C123.906 198.665 123.906 198.741 123.884 198.812C123.861 198.883 123.816 198.945 123.756 198.989C123.696 199.033 123.624 199.057 123.549 199.057H123.552Z" fill="#BB8A52"/>
<path d="M119.41 203.468C119.346 203.468 119.282 203.451 119.227 203.417C119.19 203.396 115.547 201.175 112.895 199.24C112.856 199.213 112.823 199.179 112.797 199.14C112.771 199.1 112.754 199.055 112.746 199.009C112.738 198.962 112.739 198.915 112.75 198.869C112.761 198.823 112.781 198.779 112.809 198.741C112.837 198.703 112.872 198.671 112.913 198.647C112.953 198.623 112.998 198.607 113.045 198.6C113.092 198.594 113.139 198.597 113.185 198.609C113.23 198.622 113.273 198.643 113.31 198.672C115.93 200.588 119.548 202.793 119.584 202.816C119.649 202.856 119.7 202.917 119.728 202.988C119.756 203.059 119.76 203.138 119.739 203.212C119.718 203.285 119.674 203.35 119.613 203.397C119.552 203.443 119.477 203.468 119.401 203.468H119.41Z" fill="#BB8A52"/>
<path d="M114.107 206.121C114.048 206.121 113.99 206.105 113.939 206.077C112.417 205.239 110.449 203.832 110.364 203.773C110.289 203.719 110.237 203.637 110.222 203.545C110.207 203.452 110.229 203.358 110.284 203.282C110.338 203.206 110.42 203.155 110.512 203.14C110.605 203.125 110.699 203.147 110.775 203.201C110.796 203.215 112.794 204.644 114.279 205.46C114.346 205.498 114.4 205.557 114.431 205.628C114.461 205.7 114.467 205.779 114.448 205.854C114.429 205.93 114.385 205.996 114.324 206.044C114.263 206.092 114.187 206.118 114.11 206.119L114.107 206.121Z" fill="#BB8A52"/>
<path d="M78.0116 164.896C71.4566 166.669 65.6263 174.542 63.4218 180.673C61.6347 179.702 60.0352 178.831 58.8813 178.198C60.093 176.151 61.4829 174.215 63.0348 172.412C68.6892 165.869 74.9721 163.965 78.0116 164.896Z" fill="#D39E5F"/>
<path d="M206.785 202.167C205.784 203.729 203.882 206.241 201.968 206.318C201.198 206.373 200.428 206.212 199.745 205.852C199.061 205.492 198.493 204.949 198.103 204.282C195.164 206.459 193.527 203.356 193.527 203.356C191.037 204.477 189.927 202.279 189.927 202.279C188.583 202.706 187.08 202.296 186.567 201.149C185.828 199.507 185.504 196.651 186.112 194.866C186.972 192.331 189.73 192.357 189.927 195.3C190.797 193.323 193.33 193.393 193.68 196.003C195.542 193.159 198.638 194.043 198.605 196.773C200.978 193.6 203.675 196.149 202.322 198.555C202.228 198.724 202.158 198.904 202.113 199.092C202.046 199.198 201.998 199.315 201.97 199.437C201.874 200.029 201.874 200.634 201.97 201.226C201.97 201.226 204.602 201.756 206.785 202.167Z" fill="#FFD2A8"/>
<path d="M196.086 205.408C195.881 205.408 195.676 205.385 195.476 205.34C194.39 205.091 193.689 204.24 193.387 203.794C191.342 204.557 190.171 203.262 189.77 202.69C188.262 203.056 186.78 202.483 186.252 201.283C185.516 199.641 185.127 196.672 185.783 194.742C185.814 194.653 185.879 194.581 185.964 194.541C186.048 194.5 186.145 194.495 186.234 194.526C186.322 194.557 186.394 194.622 186.435 194.706C186.475 194.791 186.48 194.888 186.449 194.976C185.868 196.691 186.215 199.477 186.893 201.003C187.303 201.92 188.591 202.333 189.827 201.942C189.906 201.916 189.992 201.92 190.069 201.953C190.146 201.985 190.209 202.043 190.246 202.117C190.286 202.193 191.243 203.994 193.387 203.03C193.468 202.993 193.561 202.989 193.645 203.018C193.73 203.048 193.8 203.108 193.842 203.187C193.842 203.187 194.496 204.392 195.64 204.65C196.344 204.808 197.097 204.587 197.899 203.994C197.974 203.938 198.068 203.914 198.16 203.928C198.253 203.942 198.336 203.991 198.391 204.066C198.447 204.141 198.471 204.235 198.457 204.328C198.443 204.42 198.394 204.503 198.319 204.559C197.554 205.126 196.808 205.408 196.086 205.408Z" fill="#BB8A52"/>
<path d="M198.6 197.129C198.554 197.129 198.508 197.119 198.466 197.101C198.423 197.082 198.385 197.056 198.353 197.023C198.32 196.99 198.295 196.951 198.278 196.908C198.261 196.865 198.252 196.819 198.253 196.773C198.265 195.736 197.763 194.936 196.942 194.685C195.94 194.381 194.777 194.974 193.975 196.2C193.936 196.26 193.879 196.307 193.813 196.334C193.746 196.36 193.673 196.366 193.603 196.35C193.534 196.335 193.47 196.298 193.422 196.245C193.373 196.192 193.342 196.126 193.332 196.055C193.199 195.047 192.695 194.385 191.982 194.284C191.269 194.184 190.6 194.653 190.253 195.441C190.216 195.526 190.145 195.593 190.058 195.627C189.971 195.661 189.874 195.659 189.789 195.621C189.703 195.584 189.636 195.513 189.602 195.426C189.568 195.339 189.571 195.242 189.608 195.157C190.077 194.076 191.076 193.442 192.078 193.585C192.739 193.679 193.485 194.158 193.851 195.201C194.789 194.134 196.032 193.672 197.134 194.012C198.236 194.352 198.961 195.419 198.942 196.78C198.942 196.871 198.906 196.959 198.842 197.024C198.778 197.089 198.691 197.127 198.6 197.129Z" fill="#BB8A52"/>
<path d="M189.927 202.631C189.867 202.632 189.807 202.616 189.754 202.587C189.701 202.557 189.656 202.514 189.625 202.462C188.583 200.736 188.576 197.179 189.613 195.141C189.632 195.097 189.661 195.058 189.696 195.026C189.731 194.994 189.772 194.969 189.817 194.953C189.862 194.937 189.91 194.93 189.957 194.934C190.005 194.937 190.051 194.95 190.094 194.971C190.136 194.993 190.174 195.023 190.204 195.059C190.235 195.096 190.257 195.138 190.271 195.184C190.285 195.23 190.289 195.278 190.283 195.325C190.278 195.372 190.263 195.418 190.239 195.459C189.329 197.251 189.322 200.6 190.227 202.099C190.26 202.152 190.278 202.213 190.279 202.276C190.28 202.338 190.264 202.4 190.234 202.454C190.203 202.508 190.159 202.554 190.105 202.585C190.051 202.617 189.99 202.634 189.927 202.634V202.631Z" fill="#BB8A52"/>
<path d="M193.527 203.705C193.475 203.705 193.424 203.694 193.377 203.672C193.33 203.649 193.288 203.617 193.255 203.576C192.082 202.129 192.146 197.713 193.382 195.816C193.434 195.741 193.514 195.69 193.603 195.673C193.693 195.656 193.786 195.674 193.862 195.724C193.938 195.774 193.992 195.851 194.013 195.94C194.033 196.029 194.018 196.123 193.97 196.201C192.824 197.95 192.878 202.005 193.799 203.131C193.841 203.182 193.868 203.245 193.876 203.311C193.884 203.377 193.873 203.444 193.845 203.504C193.816 203.564 193.771 203.615 193.715 203.651C193.659 203.686 193.594 203.705 193.527 203.705Z" fill="#BB8A52"/>
<path d="M198.103 204.634C198.045 204.634 197.987 204.619 197.936 204.591C197.885 204.563 197.842 204.523 197.81 204.475C196.834 202.988 196.93 198.571 198.312 196.578C198.338 196.54 198.372 196.508 198.41 196.482C198.449 196.457 198.493 196.44 198.538 196.432C198.584 196.424 198.631 196.424 198.676 196.434C198.721 196.444 198.764 196.463 198.802 196.489C198.84 196.515 198.872 196.549 198.897 196.588C198.922 196.627 198.94 196.67 198.948 196.716C198.956 196.761 198.955 196.808 198.946 196.853C198.936 196.898 198.917 196.941 198.891 196.979C197.69 198.715 197.568 202.821 198.398 204.09C198.433 204.143 198.453 204.204 198.455 204.267C198.458 204.331 198.444 204.393 198.414 204.449C198.384 204.505 198.339 204.551 198.285 204.584C198.231 204.616 198.169 204.634 198.105 204.634H198.103Z" fill="#BB8A52"/>
<path d="M185.415 174.976C179.317 176.871 176.386 183.039 174.352 188.907L169.964 186.871C171.118 185.04 172.414 183.302 173.841 181.674C178.013 176.967 182.994 174.165 185.415 174.976Z" fill="#D39E5F"/>
<path d="M197.42 181.205C193.738 181.97 190.335 183.023 190.438 181.674C190.502 180.827 191.822 180.06 193.487 179.535L195.734 180.818C195.889 180.912 196.541 181.053 197.42 181.205Z" fill="#D39E5F"/>
<path d="M183.982 70.42C184.526 70.42 184.967 69.979 184.967 69.435C184.967 68.891 184.526 68.45 183.982 68.45C183.438 68.45 182.997 68.891 182.997 69.435C182.997 69.979 183.438 70.42 183.982 70.42Z" fill="url(#paint22_linear_1_5493)"/>
<path d="M198.863 70.42C199.407 70.42 199.848 69.979 199.848 69.435C199.848 68.891 199.407 68.45 198.863 68.45C198.319 68.45 197.878 68.891 197.878 69.435C197.878 69.979 198.319 70.42 198.863 70.42Z" fill="url(#paint23_linear_1_5493)"/>
<path d="M213.743 70.42C214.287 70.42 214.728 69.979 214.728 69.435C214.728 68.891 214.287 68.45 213.743 68.45C213.199 68.45 212.758 68.891 212.758 69.435C212.758 69.979 213.199 70.42 213.743 70.42Z" fill="url(#paint24_linear_1_5493)"/>
<path d="M228.624 70.42C229.168 70.42 229.609 69.979 229.609 69.435C229.609 68.891 229.168 68.45 228.624 68.45C228.08 68.45 227.639 68.891 227.639 69.435C227.639 69.979 228.08 70.42 228.624 70.42Z" fill="url(#paint25_linear_1_5493)"/>
<path d="M243.504 70.42C244.048 70.42 244.489 69.979 244.489 69.435C244.489 68.891 244.048 68.45 243.504 68.45C242.96 68.45 242.519 68.891 242.519 69.435C242.519 69.979 242.96 70.42 243.504 70.42Z" fill="url(#paint26_linear_1_5493)"/>
<path d="M286.575 119.508C283.815 119.931 282.508 116.746 282.933 116.443C283.357 116.141 284.575 116.657 284.237 115.958C283.899 115.259 282.933 112.651 283.812 112.44C284.692 112.229 285.116 114.565 285.421 114.229C285.726 113.894 286.908 113.319 287.063 114.745C287.218 116.171 287.851 115.838 288.235 115.533C288.62 115.228 289.155 119.114 286.575 119.508Z" fill="url(#paint27_linear_1_5493)"/>
<path d="M298.578 161.563C300.079 163.376 303.093 162.455 302.954 161.702C302.816 160.949 303.189 161.09 303.977 160.975C304.765 160.86 305.766 160.271 305.384 159.79C305.002 159.31 303.989 159.837 304.244 159.488C304.5 159.138 306.299 158.55 306.121 157.907C305.959 157.302 303.494 158.395 303.47 158.046C303.447 157.696 303.644 156.53 303.053 156.404C302.08 156.169 301.055 158.611 300.846 158.425C300.637 158.24 300.708 157.293 300.321 157.253C299.315 157.121 297.757 160.578 298.578 161.563Z" fill="url(#paint28_linear_1_5493)"/>
<path d="M255.824 181.798C253.498 177.413 252.14 172.652 252.011 167.856C251.882 163.06 250.923 162.759 248.561 162.736C247.438 162.736 248.113 152.855 243.983 153.796C241.169 154.438 239.459 161.688 242.85 168.974C242.85 168.974 241.04 168.095 240.897 169.596C240.754 171.097 242.069 174.27 248.707 179.83C253.364 183.735 258.486 184.005 258.486 184.005L255.824 181.798Z" fill="url(#paint29_linear_1_5493)"/>
<path d="M293.635 149.321C294.089 149.708 293.24 152.954 294.688 152.455C296.135 151.955 299.144 149.926 298.348 149.321C297.553 148.716 296.214 148.242 296.425 147.977C296.636 147.712 298.32 146.739 297.293 145.686C296.266 144.633 293.923 144.79 292.422 145.921C290.921 147.051 290.354 149.04 290.921 149.95C291.974 151.627 293.309 149.035 293.635 149.321Z" fill="url(#paint30_linear_1_5493)"/>
<path d="M293.058 133.547C293.238 132.864 293.292 132.316 293.058 132.173C292.354 131.72 291.733 132.482 291.13 136.887L291.695 137.121L291.798 136.887L292.169 137.206C292.169 137.206 295.07 135.062 295.096 133.643C295.122 132.224 293.801 132.14 293.058 133.547Z" fill="url(#paint31_linear_1_5493)"/>
<path d="M291.948 135.784C293.09 136.467 292.363 138.23 291.135 139.771C289.906 141.312 284.861 146.253 279.516 143.383C274.171 140.512 274.568 135.367 276.151 131.605C277.734 127.843 279.983 127.299 281.416 128.143C283.646 129.454 282.049 135.845 284.315 136.725C289.58 138.767 290.82 135.109 291.948 135.784Z" fill="url(#paint32_linear_1_5493)"/>
<path d="M289.978 141.347C289.916 141.348 289.856 141.331 289.802 141.301C287.691 140.083 287.952 137.579 288.212 137.049C288.231 137.005 288.259 136.965 288.293 136.933C288.328 136.9 288.369 136.874 288.413 136.858C288.458 136.841 288.506 136.834 288.553 136.837C288.601 136.839 288.647 136.851 288.69 136.872C288.733 136.893 288.771 136.923 288.802 136.959C288.833 136.995 288.856 137.037 288.871 137.082C288.885 137.128 288.89 137.176 288.885 137.223C288.88 137.271 288.866 137.316 288.843 137.358C288.742 137.565 288.355 139.659 290.152 140.691C290.219 140.729 290.271 140.789 290.301 140.861C290.331 140.932 290.336 141.012 290.316 141.087C290.296 141.162 290.252 141.228 290.19 141.275C290.129 141.322 290.053 141.348 289.976 141.347H289.978Z" fill="#ECB88B"/>
<path d="M286.324 143.836C286.259 143.835 286.194 143.817 286.139 143.782C285.577 143.432 285.121 142.936 284.818 142.348C284.515 141.759 284.378 141.1 284.42 140.44C284.45 139.723 284.671 139.028 285.06 138.426C285.448 137.823 285.991 137.336 286.631 137.013C286.715 136.972 286.812 136.965 286.9 136.995C286.989 137.025 287.061 137.089 287.103 137.173C287.144 137.256 287.151 137.353 287.121 137.441C287.091 137.53 287.027 137.603 286.943 137.644C286.416 137.911 285.969 138.314 285.649 138.811C285.329 139.308 285.148 139.882 285.123 140.473C285.084 141.008 285.193 141.544 285.438 142.023C285.683 142.501 286.054 142.902 286.512 143.184C286.576 143.224 286.626 143.284 286.653 143.356C286.68 143.427 286.684 143.505 286.663 143.578C286.642 143.651 286.598 143.716 286.537 143.762C286.477 143.808 286.403 143.833 286.327 143.833L286.324 143.836Z" fill="#ECB88B"/>
<path d="M282.11 144.558C282.024 144.559 281.94 144.528 281.875 144.471C280.907 143.625 280.506 142.037 280.855 140.428C281.038 139.505 281.468 138.65 282.1 137.952C282.732 137.255 283.541 136.742 284.441 136.469C284.529 136.448 284.621 136.461 284.699 136.506C284.778 136.55 284.836 136.624 284.862 136.71C284.888 136.796 284.879 136.889 284.839 136.97C284.798 137.05 284.728 137.112 284.643 137.142C283.863 137.38 283.163 137.825 282.617 138.43C282.071 139.035 281.7 139.776 281.542 140.576C281.247 141.938 281.559 143.259 282.337 143.939C282.392 143.986 282.43 144.049 282.447 144.119C282.465 144.188 282.46 144.262 282.435 144.329C282.409 144.396 282.364 144.454 282.304 144.494C282.245 144.535 282.175 144.556 282.103 144.556L282.11 144.558Z" fill="#ECB88B"/>
<path d="M276.045 140.468C276.017 140.471 275.989 140.471 275.961 140.468C275.87 140.446 275.792 140.389 275.744 140.309C275.696 140.23 275.681 140.134 275.703 140.044C276.678 136.038 279.364 134.18 283.262 134.79C283.355 134.805 283.438 134.856 283.494 134.932C283.55 135.008 283.573 135.104 283.558 135.197C283.544 135.29 283.492 135.374 283.416 135.43C283.34 135.485 283.245 135.508 283.151 135.494C279.617 134.933 277.276 136.566 276.385 140.219C276.363 140.292 276.318 140.355 276.257 140.4C276.195 140.445 276.121 140.469 276.045 140.468Z" fill="#ECB88B"/>
<path d="M275.639 133.373C275.576 133.374 275.513 133.356 275.459 133.324C275.404 133.291 275.359 133.244 275.329 133.188C275.299 133.132 275.285 133.069 275.288 133.005C275.291 132.942 275.311 132.88 275.346 132.827C276.446 131.185 277.766 130.247 279.167 130.092C280.473 129.954 281.819 130.519 283.06 131.734C283.095 131.766 283.123 131.804 283.142 131.847C283.162 131.89 283.173 131.936 283.174 131.984C283.176 132.031 283.168 132.078 283.151 132.122C283.134 132.166 283.108 132.206 283.075 132.239C283.042 132.273 283.003 132.3 282.959 132.318C282.916 132.337 282.869 132.346 282.822 132.346C282.775 132.346 282.728 132.336 282.685 132.318C282.641 132.299 282.602 132.272 282.569 132.238C281.484 131.183 280.337 130.688 279.239 130.801C278.055 130.925 276.91 131.765 275.93 133.226C275.897 133.272 275.853 133.31 275.803 133.335C275.752 133.361 275.696 133.374 275.639 133.373Z" fill="#ECB88B"/>
<path d="M282.122 184.62C283.245 185.476 285.844 183.639 285.255 182.955C284.666 182.27 283.503 179.887 285.342 177.863C287.18 175.839 291.524 176.132 291.751 177.406C291.979 178.679 291.425 179.01 290.11 180.607C288.794 182.204 290.077 184.477 291.317 185.086C292.558 185.696 295.234 186.611 297.715 182.007C300.197 177.403 299.871 170.156 294.582 167.774C289.293 165.391 282.548 170.417 280.879 174.859C279.209 179.301 280.618 183.477 282.122 184.62Z" fill="url(#paint33_linear_1_5493)"/>
<path d="M297.474 182.807C297.405 182.807 297.337 182.787 297.28 182.749C297.222 182.711 297.177 182.657 297.15 182.593C296.935 182.091 296.619 181.639 296.222 181.264C295.824 180.89 295.354 180.601 294.84 180.417C293.433 179.914 291.885 179.984 290.529 180.612C290.446 180.647 290.352 180.648 290.267 180.616C290.183 180.583 290.114 180.519 290.075 180.437C290.036 180.355 290.031 180.262 290.06 180.176C290.088 180.09 290.149 180.018 290.229 179.976C291.759 179.269 293.505 179.192 295.091 179.76C295.694 179.977 296.246 180.316 296.712 180.756C297.178 181.196 297.548 181.727 297.8 182.317C297.823 182.37 297.832 182.428 297.827 182.486C297.821 182.544 297.802 182.6 297.77 182.649C297.738 182.697 297.694 182.737 297.643 182.765C297.592 182.792 297.534 182.807 297.476 182.807H297.474Z" fill="#ECB88B"/>
<path d="M291.399 177.26C291.336 177.26 291.273 177.243 291.219 177.21C291.164 177.178 291.119 177.131 291.089 177.075C291.059 177.019 291.045 176.956 291.048 176.892C291.051 176.828 291.071 176.767 291.106 176.714C292.673 174.34 295.485 173.543 299.242 174.411C299.289 174.419 299.334 174.437 299.374 174.463C299.414 174.489 299.448 174.523 299.474 174.563C299.501 174.603 299.519 174.647 299.527 174.694C299.536 174.741 299.535 174.789 299.524 174.836C299.513 174.883 299.493 174.926 299.465 174.965C299.437 175.004 299.401 175.036 299.36 175.06C299.319 175.085 299.273 175.1 299.226 175.106C299.179 175.112 299.131 175.109 299.085 175.096C296.683 174.542 293.456 174.439 291.695 177.101C291.663 177.15 291.619 177.19 291.567 177.218C291.516 177.246 291.458 177.26 291.399 177.26Z" fill="#ECB88B"/>
<path d="M289.286 176.749C289.199 176.749 289.115 176.716 289.05 176.657C288.985 176.598 288.945 176.517 288.937 176.43C288.58 172.666 291.847 168.353 295.41 167.884C295.503 167.872 295.597 167.897 295.672 167.955C295.746 168.012 295.795 168.097 295.807 168.19C295.819 168.283 295.794 168.378 295.737 168.452C295.679 168.527 295.595 168.576 295.501 168.588C292.333 169.003 289.319 173.004 289.638 176.369C289.647 176.462 289.618 176.554 289.559 176.626C289.499 176.697 289.414 176.743 289.321 176.751L289.286 176.749Z" fill="#ECB88B"/>
<path d="M286.793 177.23C286.741 177.23 286.689 177.218 286.641 177.195C286.594 177.173 286.552 177.139 286.519 177.098C284.53 174.619 284.612 169.88 286.674 168.203C286.746 168.144 286.839 168.116 286.932 168.126C287.025 168.136 287.11 168.182 287.169 168.254C287.227 168.327 287.255 168.42 287.245 168.513C287.236 168.605 287.19 168.691 287.117 168.749C285.346 170.192 285.318 174.476 287.068 176.658C287.109 176.709 287.136 176.772 287.143 176.838C287.151 176.903 287.14 176.97 287.111 177.03C287.082 177.09 287.037 177.14 286.981 177.176C286.925 177.211 286.86 177.23 286.793 177.23Z" fill="#ECB88B"/>
<path d="M285.088 178.049C283.618 178.049 281.467 177.035 280.567 175C280.547 174.957 280.535 174.911 280.533 174.865C280.531 174.818 280.539 174.771 280.555 174.727C280.571 174.683 280.596 174.643 280.628 174.609C280.66 174.575 280.699 174.548 280.742 174.528C280.785 174.509 280.831 174.499 280.878 174.498C280.924 174.497 280.971 174.506 281.014 174.523C281.058 174.54 281.098 174.566 281.131 174.599C281.164 174.631 281.191 174.67 281.209 174.714C282.072 176.66 284.312 177.549 285.478 177.307C285.523 177.298 285.57 177.298 285.615 177.306C285.66 177.315 285.704 177.332 285.742 177.358C285.781 177.383 285.814 177.416 285.84 177.454C285.866 177.492 285.884 177.535 285.894 177.581C285.903 177.626 285.904 177.673 285.895 177.718C285.886 177.763 285.869 177.807 285.843 177.845C285.818 177.884 285.785 177.917 285.747 177.943C285.709 177.969 285.666 177.988 285.621 177.997C285.445 178.032 285.267 178.049 285.088 178.049Z" fill="#ECB88B"/>
<path d="M282.783 181.587C282.563 181.587 282.343 181.562 282.129 181.512C281.207 181.299 280.417 180.661 279.837 179.669C279.812 179.629 279.795 179.584 279.787 179.538C279.78 179.491 279.782 179.443 279.793 179.397C279.804 179.351 279.824 179.308 279.853 179.27C279.881 179.232 279.917 179.201 279.957 179.177C279.998 179.153 280.043 179.138 280.09 179.132C280.137 179.126 280.185 179.129 280.23 179.142C280.276 179.155 280.318 179.177 280.355 179.207C280.392 179.236 280.422 179.273 280.445 179.315C280.914 180.135 281.559 180.658 282.286 180.827C282.608 180.897 282.941 180.899 283.264 180.833C283.587 180.766 283.893 180.634 284.162 180.443C284.2 180.417 284.244 180.399 284.289 180.391C284.334 180.382 284.381 180.382 284.426 180.391C284.472 180.4 284.515 180.418 284.553 180.444C284.591 180.47 284.624 180.503 284.65 180.541C284.675 180.58 284.693 180.623 284.702 180.668C284.711 180.714 284.711 180.76 284.702 180.806C284.692 180.851 284.674 180.894 284.649 180.932C284.623 180.971 284.59 181.003 284.551 181.029C284.03 181.385 283.414 181.579 282.783 181.587Z" fill="#ECB88B"/>
<path d="M202.348 202.732C202.281 202.732 202.217 202.713 202.161 202.678C202.105 202.643 202.06 202.593 202.031 202.533C201.445 201.318 201.348 199.641 201.82 198.87C201.843 198.828 201.874 198.792 201.911 198.763C201.949 198.734 201.992 198.713 202.038 198.701C202.083 198.689 202.131 198.686 202.178 198.693C202.225 198.7 202.27 198.716 202.31 198.741C202.35 198.765 202.385 198.798 202.413 198.836C202.44 198.875 202.46 198.919 202.47 198.965C202.481 199.011 202.481 199.059 202.473 199.105C202.464 199.152 202.446 199.196 202.42 199.235C202.148 199.683 202.106 201.072 202.655 202.228C202.68 202.282 202.692 202.341 202.689 202.4C202.686 202.46 202.667 202.517 202.636 202.568C202.604 202.618 202.56 202.659 202.508 202.688C202.456 202.717 202.398 202.732 202.338 202.732H202.348Z" fill="#BB8A52"/>
<path d="M235.634 207.484L221.314 204.812C218.614 202.35 218.647 198.701 225.322 196.665C229.872 197.469 232.916 198.014 232.916 198.014L235.634 207.484Z" fill="url(#paint34_linear_1_5493)"/>
<path d="M231.642 194.566C231.602 200.65 232.111 207.052 237.895 212.73C243.678 218.408 253.04 222.139 264.565 224.59C276.089 227.041 292.405 224.646 296.746 222.308C301.088 219.97 305.478 211.189 305.658 207.479L231.642 194.566Z" fill="url(#paint35_linear_1_5493)"/>
<path d="M305.652 207.484C305.504 208.928 303.018 210.741 298.82 212.202C291.714 214.677 279.697 216.149 265.78 213.14C252.377 210.232 242.423 205.556 236.816 201.402C233.164 198.694 231.356 196.21 231.642 194.58C233.31 185.101 261.913 187.943 277.905 192.411C293.897 196.878 306.053 203.591 305.652 207.484Z" fill="url(#paint36_linear_1_5493)"/>
<path d="M298.82 212.197C291.714 214.672 279.696 216.144 265.78 213.136C252.377 210.227 242.423 205.551 236.816 201.398C240.463 197.556 253.657 196.329 268.847 198.743C285.121 201.318 297.919 207.165 298.82 212.197Z" fill="url(#paint37_linear_1_5493)"/>
<path d="M264.652 206.095C271.688 204.857 276.331 201.782 279.927 200.08C283.522 198.377 287.126 197.856 286.317 200.884C287.823 199.008 293.616 198.22 293.696 200.342C293.848 204.374 287.858 205.809 287.861 205.816C287.863 205.823 291.289 205.703 290.909 207.033C290.227 209.379 274.812 211.107 262.119 205.61L264.652 206.095Z" fill="url(#paint38_linear_1_5493)"/>
<path d="M81.8578 167.999C81.791 167.999 81.7257 167.98 81.6693 167.944C81.613 167.908 81.5681 167.857 81.5398 167.796C81.5115 167.736 81.501 167.668 81.5096 167.602C81.5181 167.536 81.5454 167.473 81.5881 167.422C81.6163 167.389 81.6421 167.352 81.6679 167.316C82.7232 165.851 81.9493 163.51 79.0881 159.493L79.0717 159.467C78.2673 158.341 77.3503 157.152 76.4802 156.033C76.423 155.96 76.3974 155.866 76.409 155.774C76.4207 155.681 76.4686 155.597 76.5423 155.54C76.616 155.483 76.7095 155.457 76.802 155.469C76.8946 155.48 76.9788 155.528 77.036 155.602C77.9178 156.735 78.8465 157.947 79.6627 159.082L79.6791 159.108C81.9517 162.291 83.8279 165.534 82.2589 167.729C82.2237 167.778 82.1885 167.825 82.151 167.872C82.1156 167.915 82.0706 167.949 82.0196 167.971C81.9687 167.993 81.9132 168.002 81.8578 167.999Z" fill="#C5E0E2"/>
<path d="M79.3696 159.641C79.2767 159.641 79.1876 159.604 79.1217 159.538C79.0558 159.473 79.0184 159.384 79.0178 159.291C79.0178 159.247 79.0257 159.203 79.0413 159.162C80.3382 155.815 81.5601 152.741 82.6389 150.03C86.783 139.629 89.5058 132.759 90.0663 126.54C90.3502 123.604 90.3541 120.648 90.078 117.712C89.7263 114.194 89.0625 112.417 88.9336 112.095C88.8984 112.009 88.8991 111.912 88.9353 111.826C88.9716 111.74 89.0406 111.672 89.127 111.637C89.2135 111.602 89.3104 111.602 89.3964 111.639C89.4824 111.675 89.5504 111.744 89.5855 111.83C89.9795 112.799 90.4979 114.834 90.7769 117.642C91.0613 120.623 91.0613 123.624 90.7769 126.605C90.1977 132.926 87.4514 139.833 83.2932 150.292C82.2167 153.001 80.9949 156.069 79.7003 159.411C79.6753 159.478 79.6302 159.537 79.5711 159.578C79.5119 159.619 79.4416 159.641 79.3696 159.641Z" fill="#C5E0E2"/>
<path d="M209.674 198.063C208.905 198.063 207.519 197.683 206.482 195.272C206.22 194.66 205.966 194.041 205.729 193.428C205.286 192.296 204.972 191.383 204.827 190.952C204.357 191.003 203.295 191.111 201.9 191.217C201.853 191.22 201.807 191.214 201.763 191.2C201.719 191.185 201.678 191.162 201.643 191.132C201.608 191.102 201.58 191.065 201.559 191.024C201.538 190.982 201.525 190.937 201.522 190.891C201.519 190.845 201.524 190.798 201.539 190.754C201.554 190.71 201.577 190.67 201.607 190.635C201.637 190.599 201.674 190.571 201.715 190.55C201.757 190.529 201.802 190.517 201.848 190.513C203.759 190.37 205.016 190.22 205.031 190.22C205.111 190.21 205.192 190.228 205.261 190.271C205.329 190.313 205.381 190.378 205.408 190.455C205.408 190.455 205.776 191.599 206.388 193.166C206.623 193.771 206.874 194.383 207.132 194.986C207.836 196.627 208.832 197.476 209.876 197.331C210.64 197.23 211.192 196.627 211.267 196.109C211.321 195.5 211.286 194.886 211.161 194.287C210.845 192.717 210.449 191.163 209.974 189.634C209.679 188.616 209.376 187.563 209.132 186.585C208.358 183.494 206.761 182.98 204.751 182.626L204.205 182.537C204.159 182.53 204.115 182.514 204.075 182.49C204.035 182.465 204 182.434 203.972 182.396C203.944 182.358 203.924 182.315 203.913 182.27C203.902 182.225 203.9 182.178 203.907 182.131C203.914 182.085 203.93 182.041 203.955 182.001C203.979 181.961 204.011 181.926 204.048 181.898C204.086 181.871 204.129 181.851 204.174 181.84C204.22 181.828 204.267 181.826 204.313 181.833L204.873 181.927C207.059 182.31 208.94 182.912 209.815 186.407C210.049 187.364 210.357 188.41 210.65 189.423C211.133 190.978 211.535 192.557 211.855 194.153C211.995 194.824 212.032 195.512 211.965 196.193C211.834 197.099 210.978 197.88 209.972 198.013C209.874 198.037 209.774 198.053 209.674 198.063Z" fill="#BB8A52"/>
<path d="M112.09 206.993C111.352 206.978 110.618 206.868 109.907 206.665C109.817 206.641 109.74 206.582 109.693 206.502C109.646 206.421 109.633 206.325 109.657 206.235C109.681 206.145 109.74 206.068 109.821 206.021C109.901 205.974 109.997 205.961 110.088 205.985C113.247 206.825 113.77 205.673 113.774 205.661C113.791 205.611 113.818 205.565 113.854 205.527C113.891 205.489 113.935 205.459 113.984 205.441C114.034 205.422 114.087 205.415 114.139 205.419C114.192 205.424 114.243 205.44 114.288 205.467C115.866 206.405 117.337 206.454 118.336 205.624C119.058 205.019 119.373 204.017 119.082 203.239C119.056 203.169 119.053 203.093 119.073 203.021C119.093 202.949 119.135 202.886 119.193 202.84C119.252 202.794 119.323 202.767 119.398 202.764C119.472 202.761 119.545 202.782 119.607 202.824C120.895 203.677 122.1 203.293 122.797 202.634C123.639 201.846 124.105 200.38 123.249 198.881C123.226 198.841 123.211 198.797 123.206 198.751C123.2 198.705 123.203 198.658 123.215 198.614C123.228 198.569 123.248 198.527 123.277 198.491C123.305 198.454 123.34 198.423 123.381 198.4C123.421 198.377 123.465 198.363 123.511 198.357C123.557 198.351 123.604 198.354 123.648 198.366C123.693 198.379 123.735 198.4 123.771 198.428C123.808 198.456 123.838 198.491 123.861 198.532C124.91 200.366 124.33 202.172 123.28 203.15C122.838 203.572 122.282 203.856 121.68 203.966C121.079 204.076 120.458 204.007 119.896 203.769C119.903 204.225 119.807 204.678 119.616 205.093C119.425 205.508 119.143 205.874 118.791 206.166C118.228 206.635 116.68 207.552 114.229 206.241C113.946 206.567 113.341 206.993 112.09 206.993Z" fill="#BB8A52"/>
<path d="M128.601 195.373C128.515 195.374 128.431 195.343 128.367 195.286C126.193 193.41 120.78 188.74 120.78 188.74L121.249 188.208C121.249 188.208 126.662 192.875 128.836 194.754C128.89 194.801 128.928 194.864 128.946 194.933C128.963 195.003 128.959 195.076 128.933 195.144C128.908 195.211 128.862 195.269 128.803 195.309C128.743 195.35 128.673 195.371 128.601 195.37V195.373Z" fill="#BB8A52"/>
<path d="M159.542 7.50353C157.197 10.2897 148.212 11.2559 137.858 9.63538C127.265 7.97259 118.861 4.1592 117.79 0.723403C118.148 0.582977 118.522 0.48536 118.904 0.432586C129.823 -1.06134 148.923 1.40587 158.191 6.41768C158.704 6.69499 159.161 7.06289 159.542 7.50353Z" fill="url(#paint39_linear_1_5493)"/>
<path d="M269.919 187.042C267.923 186.587 268.125 185.654 269.685 185.248C271.244 184.842 274.256 185.072 275.721 187.359C277.187 189.645 274.635 190.896 273.979 190.541C273.322 190.187 272.161 188.597 271.934 188.9C271.706 189.202 271.378 192.713 270.292 192.359C269.206 192.005 266.598 191.149 266.68 190.516C266.863 189.162 270.182 187.103 269.919 187.042Z" fill="url(#paint40_linear_1_5493)"/>
<path d="M268.714 110.137C271.059 110.631 272.614 107.77 271.622 105.629C270.63 103.488 267.914 103.966 266.931 105.821C265.949 107.676 266.898 109.754 268.714 110.137Z" fill="url(#paint41_linear_1_5493)"/>
<path d="M278.679 152.691C277.992 149.03 272.138 146.237 265.456 150.231C260.191 153.379 259.162 158.245 262.194 161.828C265.226 165.412 271.408 163.51 275.015 161.277C278.622 159.045 279.364 156.357 278.679 152.691ZM274.075 160.344C271.108 162.18 266.019 163.749 263.521 160.797C261.024 157.844 261.88 153.843 266.207 151.251C271.706 147.968 276.526 150.262 277.089 153.278C277.652 156.294 277.044 158.517 274.075 160.344Z" fill="url(#paint42_linear_1_5493)"/>
<path d="M253.908 189.578C257.468 189.622 257.766 193.3 256.164 194.606C255.779 194.917 255.328 195.138 254.846 195.252C254.364 195.367 253.863 195.373 253.378 195.268C252.894 195.164 252.439 194.953 252.046 194.651C251.654 194.348 251.334 193.962 251.11 193.52C250.104 191.59 251.68 189.552 253.908 189.578Z" fill="url(#paint43_linear_1_5493)"/>
<path d="M288.006 122.531C287.935 122.532 287.865 122.511 287.807 122.47C286.348 121.469 285.55 119.201 285.621 116.255C285.623 116.164 285.661 116.077 285.727 116.013C285.793 115.949 285.881 115.913 285.973 115.913C286.065 115.916 286.154 115.955 286.218 116.022C286.282 116.089 286.317 116.179 286.315 116.272C286.252 118.938 286.955 121.037 288.191 121.901C288.253 121.943 288.3 122.004 288.325 122.075C288.35 122.146 288.352 122.224 288.329 122.296C288.307 122.368 288.262 122.43 288.201 122.475C288.141 122.52 288.067 122.543 287.992 122.543L288.006 122.531Z" fill="#51823B"/>
<path d="M297.255 162.058C296.413 162.053 295.576 161.911 294.779 161.639C294.735 161.624 294.694 161.601 294.659 161.571C294.624 161.54 294.596 161.503 294.575 161.462C294.554 161.421 294.542 161.376 294.539 161.329C294.536 161.283 294.541 161.237 294.556 161.193C294.571 161.149 294.594 161.109 294.624 161.074C294.654 161.039 294.691 161.01 294.733 160.989C294.774 160.969 294.819 160.956 294.865 160.953C294.911 160.95 294.958 160.956 295.002 160.97C299.106 162.338 301.545 159.655 301.991 159.094C302.049 159.022 302.134 158.975 302.227 158.966C302.32 158.956 302.413 158.984 302.485 159.042C302.558 159.101 302.604 159.186 302.614 159.279C302.623 159.372 302.596 159.465 302.537 159.537C301.9 160.324 301.095 160.959 300.181 161.395C299.268 161.831 298.268 162.058 297.255 162.058Z" fill="#51823B"/>
<path d="M261.314 186.088C261.259 186.088 261.204 186.075 261.155 186.05C252.663 181.742 246.038 170.886 244.67 159.035C244.665 158.989 244.669 158.942 244.682 158.898C244.695 158.853 244.716 158.811 244.745 158.775C244.774 158.738 244.81 158.708 244.851 158.686C244.891 158.663 244.936 158.649 244.982 158.644C245.028 158.638 245.075 158.642 245.12 158.655C245.164 158.668 245.206 158.689 245.243 158.718C245.279 158.747 245.309 158.783 245.332 158.824C245.354 158.865 245.369 158.909 245.374 158.956C246.715 170.581 253.186 181.219 261.476 185.424C261.547 185.46 261.604 185.518 261.637 185.59C261.671 185.662 261.679 185.743 261.66 185.82C261.642 185.897 261.598 185.966 261.536 186.015C261.473 186.064 261.396 186.09 261.317 186.09L261.314 186.088Z" fill="#51823B"/>
<path d="M271.429 206.998C266.501 206.997 261.609 206.144 256.971 204.477C256.924 204.464 256.881 204.442 256.843 204.412C256.806 204.381 256.775 204.343 256.752 204.301C256.73 204.258 256.717 204.211 256.713 204.162C256.71 204.114 256.716 204.066 256.732 204.02C256.749 203.975 256.774 203.933 256.807 203.898C256.84 203.862 256.88 203.834 256.924 203.815C256.969 203.796 257.017 203.786 257.065 203.786C257.113 203.786 257.161 203.796 257.205 203.816C262.504 205.709 268.128 206.526 273.747 206.22C279.173 205.891 283.505 204.411 285.628 202.155C285.659 202.121 285.697 202.094 285.74 202.075C285.782 202.056 285.827 202.046 285.874 202.044C285.92 202.043 285.966 202.051 286.009 202.067C286.053 202.083 286.092 202.108 286.126 202.14C286.16 202.172 286.187 202.21 286.206 202.252C286.225 202.294 286.235 202.34 286.237 202.386C286.238 202.432 286.231 202.478 286.214 202.522C286.198 202.565 286.173 202.605 286.141 202.638C283.458 205.497 277.808 206.998 271.429 206.998Z" fill="#51823B"/>
<defs>
<linearGradient id="paint0_linear_1_5493" x1="213.833" y1="71.773" x2="213.657" y2="67.1998" gradientUnits="userSpaceOnUse">
<stop stop-color="#C98348"/>
<stop offset="1" stop-color="#DD9127"/>
</linearGradient>
<linearGradient id="paint1_linear_1_5493" x1="284.462" y1="183.893" x2="287.281" y2="187.631" gradientUnits="userSpaceOnUse">
<stop stop-color="#F7B381"/>
<stop offset="1" stop-color="#FCD7BA"/>
</linearGradient>
<linearGradient id="paint2_linear_1_5493" x1="191.43" y1="97.9909" x2="207.549" y2="102.857" gradientUnits="userSpaceOnUse">
<stop stop-color="#E8E8EB"/>
<stop offset="1" stop-color="#D3D3D3"/>
</linearGradient>
<linearGradient id="paint3_linear_1_5493" x1="198.464" y1="94.0603" x2="229.79" y2="104.4" gradientUnits="userSpaceOnUse">
<stop stop-color="#E8E8EB"/>
<stop offset="1" stop-color="#D3D3D3"/>
</linearGradient>
<linearGradient id="paint4_linear_1_5493" x1="231.964" y1="97.3319" x2="251.019" y2="101.122" gradientUnits="userSpaceOnUse">
<stop stop-color="#E8E8EB"/>
<stop offset="1" stop-color="#D3D3D3"/>
</linearGradient>
<linearGradient id="paint5_linear_1_5493" x1="196.468" y1="74.606" x2="205.12" y2="80.0048" gradientUnits="userSpaceOnUse">
<stop offset="0.04" stop-color="#654B1E"/>
<stop offset="1" stop-color="#2E1D12"/>
</linearGradient>
<linearGradient id="paint6_linear_1_5493" x1="241.455" y1="74.7303" x2="247.456" y2="78.8369" gradientUnits="userSpaceOnUse">
<stop offset="0.04" stop-color="#654B1E"/>
<stop offset="1" stop-color="#2E1D12"/>
</linearGradient>
<linearGradient id="paint7_linear_1_5493" x1="210.01" y1="74.4747" x2="220.378" y2="78.5672" gradientUnits="userSpaceOnUse">
<stop offset="0.04" stop-color="#654B1E"/>
<stop offset="1" stop-color="#2E1D12"/>
</linearGradient>
<linearGradient id="paint8_linear_1_5493" x1="117.02" y1="43.032" x2="115.883" y2="55.042" gradientUnits="userSpaceOnUse">
<stop offset="0.04" stop-color="#654B1E"/>
<stop offset="1" stop-color="#2E1D12"/>
</linearGradient>
<linearGradient id="paint9_linear_1_5493" x1="136.817" y1="28.5966" x2="144.929" y2="47.0937" gradientUnits="userSpaceOnUse">
<stop stop-color="white"/>
<stop offset="1" stop-color="#DDF1F3"/>
</linearGradient>
<linearGradient id="paint10_linear_1_5493" x1="124.537" y1="151.521" x2="62.798" y2="180.119" gradientUnits="userSpaceOnUse">
<stop stop-color="white"/>
<stop offset="1" stop-color="#DDF1F3"/>
</linearGradient>
<linearGradient id="paint11_linear_1_5493" x1="73.5956" y1="148.468" x2="39.4768" y2="128.366" gradientUnits="userSpaceOnUse">
<stop stop-color="white"/>
<stop offset="1" stop-color="#DDF1F3"/>
</linearGradient>
<linearGradient id="paint12_linear_1_5493" x1="129.957" y1="157.117" x2="104.487" y2="167.903" gradientUnits="userSpaceOnUse">
<stop stop-color="white"/>
<stop offset="1" stop-color="#DDF1F3"/>
</linearGradient>
<linearGradient id="paint13_linear_1_5493" x1="167.83" y1="142.602" x2="153.252" y2="146.558" gradientUnits="userSpaceOnUse">
<stop stop-color="white"/>
<stop offset="1" stop-color="#DDF1F3"/>
</linearGradient>
<linearGradient id="paint14_linear_1_5493" x1="181.02" y1="200.056" x2="177.317" y2="187.715" gradientUnits="userSpaceOnUse">
<stop stop-color="#45A5A5"/>
<stop offset="1" stop-color="#308B85"/>
</linearGradient>
<linearGradient id="paint15_linear_1_5493" x1="207.604" y1="196.083" x2="206.407" y2="203.161" gradientUnits="userSpaceOnUse">
<stop offset="0.04" stop-color="#654B1E"/>
<stop offset="1" stop-color="#2E1D12"/>
</linearGradient>
<linearGradient id="paint16_linear_1_5493" x1="144.924" y1="158.095" x2="151.554" y2="164.296" gradientUnits="userSpaceOnUse">
<stop stop-color="#E8E8EB"/>
<stop offset="1" stop-color="#D3D3D3"/>
</linearGradient>
<linearGradient id="paint17_linear_1_5493" x1="138.411" y1="3.27752" x2="133.385" y2="34.127" gradientUnits="userSpaceOnUse">
<stop stop-color="white"/>
<stop offset="1" stop-color="#DDF1F3"/>
</linearGradient>
<linearGradient id="paint18_linear_1_5493" x1="103.938" y1="76.1822" x2="104.149" y2="78.7667" gradientUnits="userSpaceOnUse">
<stop stop-color="#45A5A5"/>
<stop offset="1" stop-color="#308B85"/>
</linearGradient>
<linearGradient id="paint19_linear_1_5493" x1="71.1729" y1="188.025" x2="67.2188" y2="179.066" gradientUnits="userSpaceOnUse">
<stop stop-color="#45A5A5"/>
<stop offset="1" stop-color="#308B85"/>
</linearGradient>
<linearGradient id="paint20_linear_1_5493" x1="133.465" y1="127.393" x2="118.702" y2="132.9" gradientUnits="userSpaceOnUse">
<stop stop-color="white"/>
<stop offset="1" stop-color="#DDF1F3"/>
</linearGradient>
<linearGradient id="paint21_linear_1_5493" x1="126.474" y1="182.441" x2="130.414" y2="186.381" gradientUnits="userSpaceOnUse">
<stop offset="0.04" stop-color="#654B1E"/>
<stop offset="1" stop-color="#2E1D12"/>
</linearGradient>
<linearGradient id="paint22_linear_1_5493" x1="183.982" y1="64.7585" x2="183.982" y2="70.8304" gradientUnits="userSpaceOnUse">
<stop stop-color="#E8E8EB"/>
<stop offset="1" stop-color="#D3D3D3"/>
</linearGradient>
<linearGradient id="paint23_linear_1_5493" x1="198.863" y1="64.7585" x2="198.863" y2="70.8304" gradientUnits="userSpaceOnUse">
<stop stop-color="#E8E8EB"/>
<stop offset="1" stop-color="#D3D3D3"/>
</linearGradient>
<linearGradient id="paint24_linear_1_5493" x1="213.743" y1="64.7585" x2="213.743" y2="70.8304" gradientUnits="userSpaceOnUse">
<stop stop-color="#E8E8EB"/>
<stop offset="1" stop-color="#D3D3D3"/>
</linearGradient>
<linearGradient id="paint25_linear_1_5493" x1="228.624" y1="64.7585" x2="228.624" y2="70.8304" gradientUnits="userSpaceOnUse">
<stop stop-color="#E8E8EB"/>
<stop offset="1" stop-color="#D3D3D3"/>
</linearGradient>
<linearGradient id="paint26_linear_1_5493" x1="243.504" y1="64.7585" x2="243.504" y2="70.8304" gradientUnits="userSpaceOnUse">
<stop stop-color="#E8E8EB"/>
<stop offset="1" stop-color="#D3D3D3"/>
</linearGradient>
<linearGradient id="paint27_linear_1_5493" x1="286.04" y1="115.24" x2="283.948" y2="118.472" gradientUnits="userSpaceOnUse">
<stop stop-color="#AAC76F"/>
<stop offset="1" stop-color="#609640"/>
</linearGradient>
<linearGradient id="paint28_linear_1_5493" x1="302.007" y1="158.547" x2="302.825" y2="161.706" gradientUnits="userSpaceOnUse">
<stop stop-color="#AAC76F"/>
<stop offset="1" stop-color="#609640"/>
</linearGradient>
<linearGradient id="paint29_linear_1_5493" x1="249.567" y1="169.725" x2="240.742" y2="174.251" gradientUnits="userSpaceOnUse">
<stop stop-color="#AAC76F"/>
<stop offset="1" stop-color="#609640"/>
</linearGradient>
<linearGradient id="paint30_linear_1_5493" x1="295.872" y1="150.109" x2="292.814" y2="146.125" gradientUnits="userSpaceOnUse">
<stop stop-color="#C98348"/>
<stop offset="1" stop-color="#DD9127"/>
</linearGradient>
<linearGradient id="paint31_linear_1_5493" x1="293.079" y1="135.719" x2="293.485" y2="131.267" gradientUnits="userSpaceOnUse">
<stop stop-color="#F7B381"/>
<stop offset="1" stop-color="#FCD7BA"/>
</linearGradient>
<linearGradient id="paint32_linear_1_5493" x1="274.525" y1="139.952" x2="282.635" y2="135.794" gradientUnits="userSpaceOnUse">
<stop stop-color="#F7B381"/>
<stop offset="1" stop-color="#FCD7BA"/>
</linearGradient>
<linearGradient id="paint33_linear_1_5493" x1="302.359" y1="166.048" x2="289.183" y2="178.208" gradientUnits="userSpaceOnUse">
<stop stop-color="#F7B381"/>
<stop offset="1" stop-color="#FCD7BA"/>
</linearGradient>
<linearGradient id="paint34_linear_1_5493" x1="225.045" y1="197.798" x2="228.652" y2="204.848" gradientUnits="userSpaceOnUse">
<stop stop-color="#E8E8EB"/>
<stop offset="1" stop-color="#D3D3D3"/>
</linearGradient>
<linearGradient id="paint35_linear_1_5493" x1="259.33" y1="194.815" x2="278.027" y2="217.967" gradientUnits="userSpaceOnUse">
<stop stop-color="#E8E8EB"/>
<stop offset="1" stop-color="#D3D3D3"/>
</linearGradient>
<linearGradient id="paint36_linear_1_5493" x1="287.354" y1="203.907" x2="250.158" y2="199.869" gradientUnits="userSpaceOnUse">
<stop stop-color="#E8E8EB"/>
<stop offset="1" stop-color="#D3D3D3"/>
</linearGradient>
<linearGradient id="paint37_linear_1_5493" x1="266.901" y1="209.606" x2="270.897" y2="197.333" gradientUnits="userSpaceOnUse">
<stop stop-color="#E8E8EB"/>
<stop offset="1" stop-color="#D3D3D3"/>
</linearGradient>
<linearGradient id="paint38_linear_1_5493" x1="277.703" y1="202.038" x2="279.164" y2="208.555" gradientUnits="userSpaceOnUse">
<stop stop-color="#AAC76F"/>
<stop offset="1" stop-color="#609640"/>
</linearGradient>
<linearGradient id="paint39_linear_1_5493" x1="134.256" y1="18.3996" x2="140.072" y2="-0.437502" gradientUnits="userSpaceOnUse">
<stop stop-color="white"/>
<stop offset="1" stop-color="#DDF1F3"/>
</linearGradient>
<linearGradient id="paint40_linear_1_5493" x1="272.218" y1="192.837" x2="270.59" y2="186.02" gradientUnits="userSpaceOnUse">
<stop stop-color="#C98348"/>
<stop offset="1" stop-color="#DD9127"/>
</linearGradient>
<linearGradient id="paint41_linear_1_5493" x1="268.001" y1="104.782" x2="271.27" y2="111.096" gradientUnits="userSpaceOnUse">
<stop stop-color="#E94E4E"/>
<stop offset="1" stop-color="#D33332"/>
</linearGradient>
<linearGradient id="paint42_linear_1_5493" x1="272.508" y1="167.814" x2="268.817" y2="152.138" gradientUnits="userSpaceOnUse">
<stop stop-color="#51823B"/>
<stop offset="1" stop-color="#AAC76F"/>
</linearGradient>
<linearGradient id="paint43_linear_1_5493" x1="253.744" y1="191.43" x2="254.398" y2="194.421" gradientUnits="userSpaceOnUse">
<stop stop-color="#E94E4E"/>
<stop offset="1" stop-color="#D33332"/>
</linearGradient>
</defs>
</svg>
