<svg xmlns="http://www.w3.org/2000/svg" width="38" height="28" viewBox="0 0 38 28" fill="none">
  <path d="M31.4791 19.4948H5.81785C5.11217 19.4948 4.53479 18.9605 4.53479 18.3075V5.24701C4.53479 4.59398 5.11217 4.05969 5.81785 4.05969H31.4791C32.1848 4.05969 32.7622 4.59398 32.7622 5.24701V18.3075C32.7622 18.9605 32.1848 19.4948 31.4791 19.4948Z" fill="#19AD58"/>
  <path d="M28.2715 14.7455C26.796 14.7455 25.4488 15.3985 24.6789 16.4671C24.0374 16.1703 23.3317 15.9328 22.4977 15.9328C20.2524 15.9328 18.3919 17.4763 18.0712 19.4947H31.4792C32.1207 19.4947 32.634 19.0792 32.7623 18.4855C32.5056 16.4077 30.581 14.7455 28.2715 14.7455Z" fill="#0D8944"/>
  <path d="M28.913 18.3074H8.384C8.384 17.0014 7.22924 15.9328 5.81787 15.9328V7.62158C7.22924 7.62158 8.384 6.55299 8.384 5.24695H28.913C28.913 6.55299 30.0678 7.62158 31.4792 7.62158V15.9328C30.0678 15.9328 28.913 17.0014 28.913 18.3074Z" fill="#47CA57"/>
  <path d="M28.2715 14.7455C26.796 14.7455 25.4488 15.3985 24.6789 16.4671C24.0374 16.1703 23.3317 15.9328 22.4977 15.9328C20.7014 15.9328 19.1617 16.8826 18.4561 18.3074H28.913C28.913 17.0014 30.0036 15.9922 31.415 15.9328C30.581 15.2204 29.4904 14.7455 28.2715 14.7455Z" fill="#0E9347"/>
  <path d="M18.6485 17.1201C21.483 17.1201 23.7808 14.728 23.7808 11.7772C23.7808 8.82643 21.483 6.43433 18.6485 6.43433C15.814 6.43433 13.5162 8.82643 13.5162 11.7772C13.5162 14.728 15.814 17.1201 18.6485 17.1201Z" fill="#19AD58"/>
  <path d="M10.9501 12.9646C11.6587 12.9646 12.2331 12.433 12.2331 11.7773C12.2331 11.1215 11.6587 10.59 10.9501 10.59C10.2414 10.59 9.66699 11.1215 9.66699 11.7773C9.66699 12.433 10.2414 12.9646 10.9501 12.9646Z" fill="#19AD58"/>
  <path d="M26.3468 12.9646C27.0554 12.9646 27.6299 12.433 27.6299 11.7773C27.6299 11.1215 27.0554 10.59 26.3468 10.59C25.6382 10.59 25.0637 11.1215 25.0637 11.7773C25.0637 12.433 25.6382 12.9646 26.3468 12.9646Z" fill="#19AD58"/>
  <path d="M19.2901 11.1836H18.007C17.6221 11.1836 17.3655 10.9462 17.3655 10.59C17.3655 10.2338 17.6221 9.9963 18.007 9.9963H19.9316C20.3165 9.9963 20.5731 9.75884 20.5731 9.40265C20.5731 9.04645 20.3165 8.80899 19.9316 8.80899H19.2901C19.2901 8.45279 19.0334 8.21533 18.6485 8.21533C18.2636 8.21533 18.007 8.45279 18.007 8.80899C16.9164 8.80899 16.0824 9.58074 16.0824 10.59C16.0824 11.5992 16.9164 12.3709 18.007 12.3709H19.2901C19.675 12.3709 19.9316 12.6084 19.9316 12.9646C19.9316 13.3208 19.675 13.5582 19.2901 13.5582H17.3655C16.9805 13.5582 16.7239 13.7957 16.7239 14.1519C16.7239 14.5081 16.9805 14.7456 17.3655 14.7456H18.007C18.007 15.1017 18.2636 15.3392 18.6485 15.3392C19.0334 15.3392 19.2901 15.1017 19.2901 14.7456C20.3807 14.7456 21.2147 13.9738 21.2147 12.9646C21.2147 11.9554 20.3807 11.1836 19.2901 11.1836Z" fill="#55E466"/>
  <path d="M21.2146 24.2441C23.6948 24.2441 25.7053 22.3835 25.7053 20.0885C25.7053 17.7934 23.6948 15.9329 21.2146 15.9329C18.7344 15.9329 16.7239 17.7934 16.7239 20.0885C16.7239 22.3835 18.7344 24.2441 21.2146 24.2441Z" fill="#FFCA5D"/>
  <path d="M26.9884 23.0567C29.4686 23.0567 31.4791 21.1962 31.4791 18.9011C31.4791 16.606 29.4686 14.7455 26.9884 14.7455C24.5082 14.7455 22.4977 16.606 22.4977 18.9011C22.4977 21.1962 24.5082 23.0567 26.9884 23.0567Z" fill="#F6B545"/>
  <path d="M26.9884 14.7455C24.4864 14.7455 22.4977 16.5858 22.4977 18.9011C22.4977 21.2163 24.4864 23.0567 26.9884 23.0567C29.4904 23.0567 31.4791 21.2163 31.4791 18.9011C31.4791 16.5858 29.4904 14.7455 26.9884 14.7455ZM26.9884 21.8694C25.1921 21.8694 23.7807 20.5633 23.7807 18.9011C23.7807 17.2388 25.1921 15.9328 26.9884 15.9328C28.7847 15.9328 30.1961 17.2388 30.1961 18.9011C30.1961 20.5633 28.7847 21.8694 26.9884 21.8694Z" fill="#FFCB5B"/>
  <path d="M26.9884 22.9974C29.4904 23.0567 31.4791 21.157 31.4791 18.9011H31.415C31.0942 18.9011 30.8376 19.1386 30.7734 19.4354C30.6451 20.2665 30.1961 21.0383 29.5545 21.5726C29.0413 22.0475 28.3356 22.3443 27.5658 22.4631C27.245 22.4631 26.9884 22.7005 26.9884 22.9974Z" fill="#F6B545"/>
  <path d="M26.9884 14.8048C24.4864 14.7455 22.4977 16.6452 22.4977 18.9011H22.5618C22.8826 18.9011 23.1392 18.6636 23.2034 18.3668C23.3317 17.5356 23.7807 16.7639 24.4223 16.2296C24.9355 15.7547 25.6412 15.4578 26.411 15.3391C26.7318 15.3391 26.9884 15.1017 26.9884 14.8048Z" fill="#FFE27A"/>
  <path d="M24.2298 19.3167C24.2298 17.6545 25.6412 16.3484 27.4375 16.3484C28.2073 16.3484 28.913 16.5859 29.4904 17.0608C28.8489 16.3484 28.0149 15.9329 26.9884 15.9329C25.1921 15.9329 23.7808 17.2389 23.7808 18.9011C23.7808 19.851 24.2298 20.6227 24.9355 21.157C24.4864 20.6821 24.2298 20.0291 24.2298 19.3167Z" fill="#F19920"/>
  <path d="M28.913 20.7414C28.8488 20.7414 28.7847 20.7414 28.7205 20.682C28.5922 20.5633 28.5922 20.3852 28.7205 20.2665C29.1054 19.9103 29.2979 19.376 29.2979 18.9011C29.2979 18.723 29.4262 18.6042 29.6186 18.6042C29.8111 18.6042 29.9394 18.723 29.9394 18.9011C29.9394 19.5541 29.6828 20.2071 29.2337 20.682C29.1054 20.7414 28.9771 20.7414 28.913 20.7414Z" fill="#FFCB5B"/>
  <path d="M26.9885 20.6821C26.6035 20.6821 26.3469 20.4446 26.3469 20.0884V17.7138C26.3469 17.3576 26.6035 17.1201 26.9885 17.1201C27.3734 17.1201 27.63 17.3576 27.63 17.7138V20.0884C27.63 20.4446 27.3734 20.6821 26.9885 20.6821Z" fill="#F19920"/>
  <path d="M23.845 15.9329C25.0639 16.6452 26.0262 17.8326 26.2828 19.198C26.4012 20.0107 26.436 21.8665 25.6272 22.7882C23.8358 22.2436 22.5619 20.6948 22.5619 18.8418C22.5619 17.7138 23.0751 16.7046 23.845 15.9329Z" fill="#F19920"/>
  <path d="M24.9355 21.157C24.4864 20.6227 24.1657 19.9697 24.1657 19.2573C24.1657 18.4262 24.5506 17.6544 25.1921 17.1201C25.0638 16.9421 24.9355 16.8233 24.8072 16.7046C24.1657 17.2389 23.7808 18.0106 23.7808 18.9011C23.7808 19.851 24.2298 20.6227 24.9355 21.157ZM26.3469 19.2573V20.0884C26.3469 20.4446 26.6035 20.6821 26.9884 20.6821C27.3733 20.6821 27.63 20.4446 27.63 20.0884V19.9697C27.245 19.6729 26.796 19.4354 26.3469 19.2573Z" fill="#E78825"/>
  <path d="M29.1696 21.8694C28.7205 22.1662 28.1432 22.3443 27.5658 22.463C27.245 22.5224 26.9884 22.7599 26.9884 23.0567C27.8865 23.0567 28.6564 22.8192 29.3621 22.4037L29.1696 21.8694Z" fill="#F19920"/>
  <path d="M23.7807 15.9922C23.0109 16.7639 22.4977 17.7732 22.4977 18.9011H22.5618C22.8826 18.9011 23.1392 18.6636 23.2034 18.3668C23.3317 17.5357 23.7807 16.8233 24.3581 16.289C24.1657 16.2297 23.9732 16.1109 23.7807 15.9922Z" fill="#FFCB5B"/>
  <path d="M21.2146 24.2441C23.6948 24.2441 25.7053 22.3835 25.7053 20.0885C25.7053 17.7934 23.6948 15.9329 21.2146 15.9329C18.7344 15.9329 16.7239 17.7934 16.7239 20.0885C16.7239 22.3835 18.7344 24.2441 21.2146 24.2441Z" fill="#F6B545"/>
  <path d="M21.2146 15.9329C18.7126 15.9329 16.7239 17.7732 16.7239 20.0885C16.7239 22.4037 18.7126 24.2441 21.2146 24.2441C23.7166 24.2441 25.7053 22.4037 25.7053 20.0885C25.7053 17.7732 23.7166 15.9329 21.2146 15.9329ZM21.2146 23.0567C19.4183 23.0567 18.0069 21.7507 18.0069 20.0885C18.0069 18.4262 19.4183 17.1202 21.2146 17.1202C23.0109 17.1202 24.4223 18.4262 24.4223 20.0885C24.4223 21.7507 23.0109 23.0567 21.2146 23.0567Z" fill="#FFCB5B"/>
  <path d="M21.2146 24.1846C23.7166 24.244 25.7053 22.3443 25.7053 20.0884H25.6412C25.3204 20.0884 25.0638 20.3258 24.9996 20.6227C24.8713 21.4538 24.4223 22.2255 23.7807 22.7598C23.2675 23.2348 22.5618 23.5316 21.792 23.6503C21.4712 23.6503 21.2146 23.8878 21.2146 24.1846Z" fill="#F6B545"/>
  <path d="M21.2146 15.9922C18.7126 15.9328 16.7239 17.8325 16.7239 20.0884H16.788C17.1088 20.0884 17.3654 19.851 17.4296 19.5541C17.5579 18.723 18.0069 17.9513 18.6485 17.417C19.1617 16.942 19.8674 16.6452 20.6372 16.5265C20.958 16.5265 21.2146 16.289 21.2146 15.9922Z" fill="#FFE27A"/>
  <path d="M18.4562 20.504C18.4562 18.8417 19.8675 17.5357 21.6638 17.5357C22.4337 17.5357 23.1393 17.7731 23.7167 18.2481C23.0752 17.5357 22.2412 17.1201 21.2147 17.1201C19.4185 17.1201 18.0071 18.4262 18.0071 20.0884C18.0071 21.0383 18.4562 21.81 19.1618 22.3443C18.7128 21.8694 18.4562 21.2163 18.4562 20.504Z" fill="#F19920"/>
  <path d="M23.1393 21.9288C23.0751 21.9288 23.011 21.9288 22.9468 21.8694C22.8185 21.7507 22.8185 21.5726 22.9468 21.4539C23.3317 21.0977 23.5242 20.5634 23.5242 20.0885C23.5242 19.9104 23.6525 19.7916 23.845 19.7916C24.0374 19.7916 24.1657 19.9104 24.1657 20.0885C24.1657 20.7415 23.9091 21.3945 23.46 21.8694C23.3317 21.9288 23.2034 21.9288 23.1393 21.9288Z" fill="#FFCB5B"/>
  <path d="M21.2147 21.8694C20.8297 21.8694 20.5731 21.632 20.5731 21.2758V18.9012C20.5731 18.545 20.8297 18.3075 21.2147 18.3075C21.5996 18.3075 21.8562 18.545 21.8562 18.9012V21.2758C21.8562 21.632 21.5996 21.8694 21.2147 21.8694Z" fill="#F19920"/>
</svg>