<svg xmlns="http://www.w3.org/2000/svg" width="146" height="147" viewBox="0 0 146 147" fill="none">
  <path d="M123.453 68.8092C123.453 83.0567 117.633 95.8995 108.302 105.13C99.1718 114.261 86.5297 119.779 72.5832 119.779C58.737 119.779 46.0949 114.16 36.8641 105.13C27.533 95.8995 21.7136 83.0567 21.7136 68.8092C21.7136 40.6152 44.4895 17.8393 72.5832 17.8393C100.677 17.8393 123.453 40.7156 123.453 68.8092Z" fill="#FFEADD"/>
  <path d="M119.038 35.3976C121.31 35.3976 123.152 33.5559 123.152 31.2839C123.152 29.012 121.31 27.1702 119.038 27.1702C116.766 27.1702 114.925 29.012 114.925 31.2839C114.925 33.5559 116.766 35.3976 119.038 35.3976Z" fill="#F8E5DA"/>
  <path d="M125.058 19.3442C126.61 19.3442 127.868 18.0864 127.868 16.5348C127.868 14.9832 126.61 13.7254 125.058 13.7254C123.507 13.7254 122.249 14.9832 122.249 16.5348C122.249 18.0864 123.507 19.3442 125.058 19.3442Z" fill="#F8BCA7"/>
  <path d="M23.3191 35.2973C24.8707 35.2973 26.1285 34.0396 26.1285 32.488C26.1285 30.9364 24.8707 29.6786 23.3191 29.6786C21.7676 29.6786 20.5098 30.9364 20.5098 32.488C20.5098 34.0396 21.7676 35.2973 23.3191 35.2973Z" fill="#F8BCA7"/>
  <path d="M6.16197 89.4781C9.04346 89.4781 11.3794 87.1421 11.3794 84.2607C11.3794 81.3792 9.04346 79.0433 6.16197 79.0433C3.28049 79.0433 0.94458 81.3792 0.94458 84.2607C0.94458 87.1421 3.28049 89.4781 6.16197 89.4781Z" fill="#F8E5DA"/>
  <g filter="url(#filter0_d_1_5388)">
    <path d="M108.833 45.4422L109.636 110.058C109.636 112.265 107.83 113.971 105.623 113.971H42.6127C40.4054 113.971 38.5994 112.165 38.5994 110.058V26.9807C38.5994 24.7733 40.4054 23.0676 42.6127 23.0676H88.2649L108.833 45.4422Z" fill="url(#paint0_linear_1_5388)"/>
  </g>
  <path d="M71.4087 36.6127H49.2348C48.5324 36.6127 47.9304 36.0107 47.9304 35.3084C47.9304 34.606 48.5324 34.004 49.2348 34.004H71.4087C72.111 34.004 72.713 34.606 72.713 35.3084C72.713 36.0107 72.111 36.6127 71.4087 36.6127Z" fill="#F8BCA7"/>
  <path d="M60.8736 43.837H49.2348C48.5324 43.837 47.9304 43.235 47.9304 42.5327C47.9304 41.8303 48.5324 41.2283 49.2348 41.2283H60.7732C61.4756 41.2283 62.0776 41.8303 62.0776 42.5327C62.0776 43.235 61.4756 43.837 60.8736 43.837Z" fill="#F8BCA7"/>
  <path d="M88.2649 23.0676V40.9272C88.2649 43.4355 90.4722 45.4422 92.9806 45.4422H108.833" fill="#F8BCA7"/>
  <path d="M60.7151 89.4571C60.2936 89.4571 59.9565 89.2885 59.6193 89.0357C59.0292 88.4456 59.0292 87.4341 59.6193 86.844C63.4968 83.0508 68.6387 80.9435 74.1178 80.9435C79.5969 80.9435 84.7388 83.0508 88.6164 86.844C89.2064 87.4341 89.2064 88.4456 88.6164 89.0357C88.0263 89.6257 87.0148 89.6257 86.4247 89.0357C83.1373 85.7482 78.754 83.978 74.1178 83.978C69.4817 83.978 65.0984 85.7482 61.8109 89.0357C61.4738 89.2885 61.1366 89.4571 60.7151 89.4571Z" fill="#F8BCA7"/>
  <path d="M66.0256 66.8664L68.0487 64.8433C68.6387 64.2533 68.6387 63.2417 68.0487 62.6517C67.4586 62.0616 66.4471 62.0616 65.857 62.6517L63.834 64.6747L61.8109 62.6517C61.2209 62.0616 60.2094 62.0616 59.6193 62.6517C59.0292 63.2417 59.0292 64.2533 59.6193 64.8433L61.6424 66.8664L59.6193 68.8894C59.0292 69.4795 59.0292 70.491 59.6193 71.081C59.9565 71.4182 60.2936 71.5025 60.7151 71.5025C61.1366 71.5025 61.4738 71.3339 61.8109 71.081L63.834 69.058L65.857 71.081C66.1942 71.4182 66.5314 71.5025 66.9529 71.5025C67.3743 71.5025 67.7115 71.3339 68.0487 71.081C68.6387 70.491 68.6387 69.4795 68.0487 68.8894L66.0256 66.8664Z" fill="#F8BCA7"/>
  <path d="M86.509 66.8664L88.5321 64.8433C89.1221 64.2533 89.1221 63.2417 88.5321 62.6517C87.942 62.0616 86.9305 62.0616 86.3404 62.6517L84.3174 64.6747L82.2943 62.6517C81.7043 62.0616 80.6928 62.0616 80.1027 62.6517C79.5126 63.2417 79.5126 64.2533 80.1027 64.8433L82.1257 66.8664L80.1027 68.8894C79.5126 69.4795 79.5126 70.491 80.1027 71.081C80.4399 71.4182 80.777 71.5025 81.1985 71.5025C81.62 71.5025 81.9572 71.3339 82.2943 71.081L84.3174 69.058L86.3404 71.081C86.6776 71.4182 87.0148 71.5025 87.4363 71.5025C87.8577 71.5025 88.1949 71.3339 88.5321 71.081C89.1221 70.491 89.1221 69.4795 88.5321 68.8894L86.509 66.8664Z" fill="#F8BCA7"/>
  <defs>
    <filter id="filter0_d_1_5388" x="16.5994" y="12.0676" width="115.037" height="134.903" filterUnits="userSpaceOnUse" color-interpolation-filters="sRGB">
      <feFlood flood-opacity="0" result="BackgroundImageFix"/>
      <feColorMatrix in="SourceAlpha" type="matrix" values="0 0 0 0 0 0 0 0 0 0 0 0 0 0 0 0 0 0 127 0" result="hardAlpha"/>
      <feOffset dy="11"/>
      <feGaussianBlur stdDeviation="11"/>
      <feColorMatrix type="matrix" values="0 0 0 0 0.992157 0 0 0 0 0.909804 0 0 0 0 0.862745 0 0 0 0.66 0"/>
      <feBlend mode="normal" in2="BackgroundImageFix" result="effect1_dropShadow_1_5388"/>
      <feBlend mode="normal" in="SourceGraphic" in2="effect1_dropShadow_1_5388" result="shape"/>
    </filter>
    <linearGradient id="paint0_linear_1_5388" x1="74.0946" y1="20.965" x2="74.0946" y2="114.951" gradientUnits="userSpaceOnUse">
      <stop stop-color="#FDFEFF"/>
      <stop offset="0.9964" stop-color="#ECF0F5"/>
    </linearGradient>
  </defs>
</svg>