<svg width="317" height="235" viewBox="0 0 317 235" fill="none" xmlns="http://www.w3.org/2000/svg">
<g id="Greeting: Thank you for your subscription">
<path id="Vector" d="M264.019 215.171C242.158 210.715 203.802 210.122 179.423 216.271C175.684 217.209 171.318 218.307 166.446 219.44C145.137 224.39 114.229 230.089 84.5478 227.235C76.8269 226.53 69.184 225.14 61.7097 223.079C19.5443 211.22 -7.64656 156.383 3.02904 115.341C21.6551 43.7307 83.014 32.8933 130.595 33.7493C178.175 34.6053 261.225 49.6056 299.127 104.217C340.915 164.427 299.127 222.35 264.019 215.171Z" fill="#FFEADD"/>
<g id="Group 3">
<g id="Group 7">
<g id="Group 6">
<path id="Path 144" fill-rule="evenodd" clip-rule="evenodd" d="M61.308 116.258L69.1712 114.185C71.5213 113.565 73.0148 111.26 72.6202 108.862C72.3208 107.043 73.1096 105.216 74.6392 104.187L76.8558 102.695C78.6163 101.51 78.9632 98.9058 77.8231 97.1161C76.933 95.7188 76.8696 94.3301 77.7459 92.924C78.9459 90.9984 78.42 88.1635 76.3959 87.1384L75.2506 86.5583C73.025 85.4311 70.3065 86.2297 69.0442 88.3816L68.5793 89.1742C67.8514 90.415 66.4237 91.0664 65.0095 90.8028C62.9732 90.4233 61.0709 91.9303 60.9744 93.9995L60.7692 98.3987C60.6929 100.033 59.2747 101.278 57.6441 101.141C55.3058 100.944 53.7227 103.472 54.92 105.49L61.308 116.258Z" fill="url(#paint0_linear_1_5761)"/>
<path id="Path 141" d="M68.6972 222.275L58.994 116.687L70.6794 97.1844" stroke="#18233D" stroke-linecap="round"/>
<g id="Group 5">
<path id="Path 144_2" fill-rule="evenodd" clip-rule="evenodd" d="M64.0152 139.451V132.689C64.0152 130.329 65.8103 128.357 68.1597 128.135C69.8978 127.971 71.391 126.831 72.0084 125.198L72.2101 124.665C73.2198 121.994 76.1085 120.544 78.8536 121.328C79.5555 121.529 80.0461 121.669 80.0461 121.669C80.0461 121.669 80.6624 121.065 81.4438 120.299C83.2118 118.565 86.0519 118.595 87.7817 120.367L88.1135 120.707C89.6887 122.32 89.6259 124.914 87.9746 126.449L87.3315 127.047C86.3912 127.921 86.1493 129.315 86.7399 130.455C87.566 132.049 86.7343 134.002 85.0122 134.51L80.5978 135.815C79.185 136.232 78.4309 137.768 78.9647 139.141C79.7064 141.049 77.9826 142.997 75.9987 142.494L64.0152 139.451Z" fill="url(#paint1_linear_1_5761)"/>
<path id="Path 143" d="M61.1376 141.234L80.2209 126.707" stroke="#18233D" stroke-linecap="round"/>
</g>
<g id="Group 5_2">
<path id="Path 144_3" fill-rule="evenodd" clip-rule="evenodd" d="M56.7388 121.607V114.845C56.7388 112.485 54.9438 110.513 52.5944 110.291C50.8562 110.126 49.3631 108.987 48.7456 107.354L48.5439 106.821C47.5342 104.15 44.6455 102.7 41.9005 103.484C41.1986 103.685 40.7079 103.825 40.7079 103.825C40.7079 103.825 40.0916 103.221 39.3102 102.454C37.5422 100.721 34.7021 100.751 32.9724 102.523L32.6405 102.863C31.0653 104.476 31.1281 107.07 32.7795 108.605L33.4225 109.203C34.3628 110.077 34.6048 111.471 34.0141 112.611C33.188 114.205 34.0197 116.158 35.7418 116.666L40.1562 117.971C41.5691 118.388 42.3231 119.924 41.7893 121.297C41.0476 123.205 42.7715 125.153 44.7553 124.65L56.7388 121.607Z" fill="url(#paint2_linear_1_5761)"/>
<path id="Path 143_2" d="M59.6182 123.39L40.5349 108.863" stroke="#18233D" stroke-linecap="round"/>
</g>
<path id="Path 144_4" fill-rule="evenodd" clip-rule="evenodd" d="M66.1789 174.951V166.499C66.1789 163.549 68.4227 161.083 71.3595 160.806C73.5322 160.601 75.3986 159.177 76.1704 157.135L76.4226 156.468C77.6847 153.13 81.2956 151.317 84.7268 152.298C85.6042 152.548 86.2176 152.724 86.2176 152.724C86.2176 152.724 86.9879 151.968 87.9647 151.011C90.1747 148.844 93.7248 148.882 95.887 151.096L96.3018 151.521C98.2708 153.538 98.1923 156.78 96.1281 158.699L95.3242 159.446C94.1489 160.539 93.8465 162.281 94.5847 163.706C95.6174 165.699 94.5778 168.139 92.4252 168.775L86.9071 170.406C85.1411 170.928 84.1985 172.848 84.8658 174.564C85.7929 176.949 83.6381 179.384 81.1583 178.754L66.1789 174.951Z" fill="url(#paint3_linear_1_5761)"/>
<path id="Path 144_5" fill-rule="evenodd" clip-rule="evenodd" d="M58.0877 161.681V153.229C58.0877 150.279 55.8439 147.814 52.9071 147.536C50.7344 147.331 48.868 145.907 48.0962 143.866L47.844 143.199C46.5819 139.861 42.971 138.048 39.5398 139.028C38.6624 139.279 38.049 139.454 38.049 139.454C38.049 139.454 37.2787 138.699 36.3019 137.741C34.0919 135.574 30.5418 135.612 28.3796 137.826L27.9648 138.251C25.9958 140.268 26.0743 143.51 28.1385 145.429L28.9424 146.177C30.1177 147.269 30.4201 149.012 29.6819 150.437C28.6492 152.429 29.6888 154.87 31.8414 155.506L37.3595 157.136C39.1255 157.658 40.0681 159.578 39.4008 161.294C38.4737 163.679 40.6285 166.114 43.1083 165.485L58.0877 161.681Z" fill="url(#paint4_linear_1_5761)"/>
<path id="Path 142" d="M63.2803 165.629L33.6403 143.448" stroke="#18233D" stroke-linecap="round"/>
<path id="Path 144_6" fill-rule="evenodd" clip-rule="evenodd" d="M61.1941 198.222V189.77C61.1941 186.82 58.9503 184.354 56.0136 184.077C53.8409 183.871 51.9745 182.447 51.2026 180.406L50.9505 179.739C49.6884 176.401 46.0775 174.588 42.6462 175.568C41.7688 175.819 41.1555 175.994 41.1555 175.994C41.1555 175.994 40.3852 175.239 39.4084 174.281C37.1984 172.115 33.6482 172.152 31.4861 174.367L31.0712 174.792C29.1023 176.808 29.1808 180.051 31.245 181.97L32.0488 182.717C33.2241 183.81 33.5266 185.552 32.7883 186.977C31.7557 188.97 32.7953 191.41 34.9479 192.046L40.4659 193.677C42.232 194.198 43.1745 196.118 42.5072 197.835C41.5801 200.219 43.735 202.655 46.2147 202.025L61.1941 198.222Z" fill="url(#paint5_linear_1_5761)"/>
<path id="Path 142_2" d="M66.3876 202.169L36.7476 179.989" stroke="#18233D" stroke-linecap="round"/>
<path id="Path 145" d="M64.0164 175.852L90.9876 156.307" stroke="#18233D" stroke-linecap="round"/>
</g>
</g>
<g id="Group 7_2">
<g id="Group 6_2">
<path id="Path 144_7" fill-rule="evenodd" clip-rule="evenodd" d="M250.143 142.732L244.205 141.172C242.441 140.708 241.319 138.978 241.617 137.179C241.842 135.812 241.249 134.44 240.099 133.668L239.539 133.293C237.594 131.989 237.3 128.974 238.561 127.001C238.822 126.593 238.59 126.544 238.333 126.134C238.255 126.009 238.167 125.869 238.073 125.718C236.924 123.88 237.602 121.452 239.537 120.476L239.641 120.423C241.316 119.578 243.36 120.178 244.312 121.795L244.661 122.389C245.211 123.322 246.286 123.812 247.352 123.615C248.888 123.329 250.322 124.466 250.395 126.027L250.549 129.314C250.607 130.544 251.674 131.481 252.902 131.378C254.664 131.231 255.856 133.137 254.951 134.657L250.143 142.732Z" fill="url(#paint6_linear_1_5761)"/>
<path id="Path 141_2" d="M244.575 222.353L251.889 143.053L243.081 128.407" stroke="#18233D" stroke-linecap="round"/>
<g id="Group 5_3">
<path id="Path 144_8" fill-rule="evenodd" clip-rule="evenodd" d="M248.102 160.15V155.085C248.102 153.305 246.748 151.818 244.976 151.651C243.667 151.528 242.542 150.671 242.075 149.441L241.924 149.044C241.163 147.038 238.993 145.949 236.93 146.536C236.394 146.689 236.019 146.795 236.019 146.795C236.019 146.795 235.549 146.337 234.956 145.757C233.627 144.459 231.497 144.482 230.197 145.809L229.939 146.072C228.752 147.283 228.799 149.234 230.043 150.386L230.528 150.835C231.236 151.491 231.418 152.539 230.973 153.395C230.351 154.591 230.975 156.057 232.268 156.438L235.606 157.42C236.669 157.733 237.235 158.888 236.833 159.92C236.274 161.351 237.567 162.815 239.057 162.438L248.102 160.15Z" fill="url(#paint7_linear_1_5761)"/>
<path id="Path 143_3" d="M250.27 161.489L235.887 150.579" stroke="#18233D" stroke-linecap="round"/>
</g>
<g id="Group 5_4">
<path id="Path 144_9" fill-rule="evenodd" clip-rule="evenodd" d="M253.588 146.749V141.683C253.588 139.904 254.942 138.417 256.713 138.25C258.023 138.127 259.148 137.269 259.615 136.04L259.765 135.642C260.527 133.637 262.697 132.547 264.76 133.135C265.296 133.287 265.671 133.394 265.671 133.394C265.671 133.394 266.14 132.936 266.734 132.356C268.063 131.058 270.193 131.08 271.493 132.407L271.751 132.671C272.937 133.882 272.89 135.833 271.647 136.984L271.162 137.434C270.454 138.09 270.272 139.137 270.717 139.993C271.339 141.189 270.714 142.655 269.421 143.036L266.083 144.019C265.021 144.332 264.454 145.487 264.857 146.518C265.415 147.95 264.123 149.414 262.633 149.037L253.588 146.749Z" fill="url(#paint8_linear_1_5761)"/>
<path id="Path 143_4" d="M251.419 148.088L265.803 137.178" stroke="#18233D" stroke-linecap="round"/>
</g>
<path id="Path 144_10" fill-rule="evenodd" clip-rule="evenodd" d="M246.472 186.811V180.48C246.472 178.255 244.78 176.396 242.565 176.188C240.929 176.034 239.522 174.962 238.939 173.425L238.75 172.928C237.799 170.421 235.086 169.06 232.507 169.794C231.838 169.984 231.368 170.118 231.368 170.118C231.368 170.118 230.782 169.545 230.04 168.82C228.379 167.197 225.716 167.226 224.091 168.885L223.768 169.214C222.285 170.727 222.344 173.166 223.899 174.606L224.505 175.168C225.39 175.987 225.618 177.297 225.061 178.367C224.284 179.862 225.064 181.695 226.68 182.171L230.853 183.399C232.181 183.79 232.889 185.234 232.386 186.523C231.688 188.313 233.304 190.143 235.166 189.672L246.472 186.811Z" fill="url(#paint9_linear_1_5761)"/>
<path id="Path 144_11" fill-rule="evenodd" clip-rule="evenodd" d="M252.571 176.845V170.514C252.571 168.289 254.263 166.43 256.478 166.222C258.114 166.068 259.521 164.996 260.104 163.459L260.293 162.962C261.244 160.455 263.957 159.094 266.536 159.828C267.205 160.019 267.675 160.152 267.675 160.152C267.675 160.152 268.261 159.579 269.003 158.855C270.664 157.232 273.327 157.26 274.952 158.919L275.275 159.248C276.758 160.762 276.699 163.2 275.144 164.64L274.538 165.202C273.653 166.022 273.425 167.331 273.982 168.401C274.759 169.896 273.979 171.729 272.363 172.205L268.19 173.433C266.862 173.824 266.154 175.268 266.657 176.558C267.355 178.347 265.739 180.177 263.877 179.706L252.571 176.845Z" fill="url(#paint10_linear_1_5761)"/>
<path id="Path 142_3" d="M248.656 179.81L270.996 163.152" stroke="#18233D" stroke-linecap="round"/>
<path id="Path 144_12" fill-rule="evenodd" clip-rule="evenodd" d="M250.229 204.288V197.956C250.229 195.732 251.921 193.873 254.135 193.665C255.772 193.51 257.179 192.439 257.762 190.902L257.95 190.405C258.902 187.898 261.615 186.536 264.194 187.271C264.863 187.461 265.332 187.595 265.332 187.595C265.332 187.595 265.919 187.022 266.661 186.297C268.322 184.674 270.984 184.703 272.61 186.362L272.933 186.691C274.415 188.204 274.356 190.643 272.802 192.083L272.196 192.645C271.311 193.464 271.083 194.774 271.64 195.844C272.417 197.339 271.637 199.172 270.02 199.647L265.848 200.876C264.52 201.267 263.811 202.711 264.315 204C265.013 205.789 263.397 207.62 261.535 207.149L250.229 204.288Z" fill="url(#paint11_linear_1_5761)"/>
<path id="Path 142_4" d="M246.314 207.253L268.654 190.595" stroke="#18233D" stroke-linecap="round"/>
<path id="Path 145_2" d="M248.102 187.488L227.773 172.809" stroke="#18233D" stroke-linecap="round"/>
</g>
</g>
<g id="Group 2">
<path id="Path 254" fill-rule="evenodd" clip-rule="evenodd" d="M134.225 59.8369C134.225 59.8369 131.603 67.3644 135.48 77.7394C139.356 88.1144 156.46 90.7387 165.014 88.911C173.568 87.0833 178.891 71.6557 176.506 63.3726C174.122 55.0895 134.225 59.8369 134.225 59.8369Z" fill="#18233D"/>
<path id="Path 257" fill-rule="evenodd" clip-rule="evenodd" d="M141.409 106.49C141.409 106.49 126.316 106.929 111.968 111.687C97.6194 116.445 106.028 175.935 107.877 184.127C109.727 192.32 118.451 199.239 138.462 201.902C158.474 204.564 171.572 201.902 178.905 201.902C186.239 201.902 198.054 186.606 201.042 179.078C204.03 171.549 204.423 125.598 204.423 118.642C204.423 111.687 172.536 106.49 167.77 106.49C163.005 106.49 141.409 106.49 141.409 106.49Z" fill="url(#paint12_linear_1_5761)"/>
<path id="Path 262" fill-rule="evenodd" clip-rule="evenodd" d="M194.783 125.828C194.783 125.828 192.286 149.755 196.143 159.841C199.999 169.926 199.232 178.158 199.232 178.158L202.16 178.859L203.413 159.841L194.783 125.828Z" fill="url(#paint13_linear_1_5761)"/>
<path id="Path 262_2" fill-rule="evenodd" clip-rule="evenodd" d="M113.097 123.198C113.097 123.198 115.593 147.125 111.737 157.21C107.881 167.296 108.648 175.527 108.648 175.527L105.72 176.228L104.467 157.21L113.097 123.198Z" fill="url(#paint14_linear_1_5761)"/>
<path id="Path 255" fill-rule="evenodd" clip-rule="evenodd" d="M171.688 81.6886C171.688 81.6886 169.563 97.8471 171.688 103.461C173.814 109.075 177.076 110.207 177.076 110.207C177.076 110.207 174.01 127.278 156.277 127.278C138.544 127.278 135.478 110.207 135.478 110.207C135.478 110.207 142.621 104.021 141.05 86.2028C139.479 68.3846 171.688 81.6886 171.688 81.6886Z" fill="#FFD2A8"/>
<path id="Path 10" fill-rule="evenodd" clip-rule="evenodd" d="M130.956 105.992L139.057 104.529C139.057 104.529 134.356 121.503 134.356 134.442C134.356 147.38 129.744 163.857 129.744 163.857L185.742 162.697C185.742 162.697 178.289 110.508 172.405 105.992L181.481 109.319C181.481 109.319 185.49 118.703 188.204 131.391C190.918 144.079 189.886 154.452 192.728 162.697C195.569 170.943 199.11 174.213 203.666 176.261C203.666 176.261 201.525 209.945 203.413 224.937C203.413 224.937 187.871 230.025 158.647 230.533C129.423 231.04 106.462 228.433 106.462 228.433L106.448 182.906C106.448 182.906 119.08 176.364 121.515 163.857C121.515 163.857 126.082 144.189 126.082 132.425C126.082 120.661 130.956 105.992 130.956 105.992Z" fill="url(#paint15_linear_1_5761)"/>
<path id="Path 256" fill-rule="evenodd" clip-rule="evenodd" d="M141.408 91.3576C141.408 91.3576 144.192 106.49 157.538 106.49C170.883 106.49 171.246 83.2307 171.246 83.2307L141.408 91.3576Z" fill="#D39E5F"/>
<path id="Path 253" fill-rule="evenodd" clip-rule="evenodd" d="M164.876 58.1569C164.876 58.1569 170.839 62.8706 170.495 65.6881C169.998 69.7536 170.046 72.6211 171.787 72.6211C172.547 72.6211 172.1 69.4417 173.662 68.3584C180.712 64.4675 176.831 75.0599 173.179 76.4555C172.915 79.5054 170.892 85.8591 170.495 87.5384C168.292 96.8395 163.508 101.115 155.509 101.115C147.51 101.115 140.664 92.9796 139.371 87.5384C139.143 86.5796 138.123 81.048 137.252 77.2648C131.309 72.6351 133.073 66.093 137.252 68.9432C137.981 69.0603 139.131 72.6211 139.371 72.6211C141.194 73.6689 140.772 65.2319 140.772 63.5231C140.772 59.4892 144.667 61.5269 144.667 59.7528C144.667 57.9787 164.876 58.1569 164.876 58.1569Z" fill="#FFD2A8"/>
<path id="Path 260" fill-rule="evenodd" clip-rule="evenodd" d="M140.845 169.532C140.845 169.532 147.554 169.052 150.083 176.742C152.611 184.432 153.919 188.657 150.976 190.69C149.614 191.631 144.647 189.659 141.923 182.503C140.721 179.346 140.845 169.532 140.845 169.532Z" fill="#0D998B"/>
<path id="Path 260_2" fill-rule="evenodd" clip-rule="evenodd" d="M163.599 171.924C163.599 171.924 170.3 172.499 171.594 180.49C172.888 188.481 173.519 192.858 170.294 194.407C168.802 195.123 164.204 192.398 162.634 184.904C161.941 181.598 163.599 171.924 163.599 171.924Z" fill="#0D998B"/>
<path id="Path 259" fill-rule="evenodd" clip-rule="evenodd" d="M136.164 186.279C136.659 186.201 146.583 187.064 152.069 184.255C154.089 183.221 155.571 181.01 155.659 177.319C155.71 175.151 155.571 167.634 155.659 161.455C155.747 155.272 156.255 148.32 155.659 143.777C155.223 140.453 155.223 139.96 153.374 139.454C151.594 138.967 151.392 145.516 150.266 149.245C149.104 153.09 148.404 159.778 148.239 161.455C147.948 164.399 145.594 167.175 143.181 168.619C140.769 170.064 136.164 172.353 136.164 172.353C136.164 172.353 135.486 186.387 136.164 186.279Z" fill="url(#paint16_linear_1_5761)"/>
<path id="Path 259_2" fill-rule="evenodd" clip-rule="evenodd" d="M174.878 187.167C174.383 187.089 164.458 187.952 158.972 185.143C156.953 184.109 155.47 181.898 155.383 178.208C155.331 176.039 155.47 168.522 155.383 162.343C155.295 156.16 154.786 149.208 155.383 144.665C155.819 141.341 155.819 140.848 157.667 140.342C159.448 139.855 159.649 146.404 160.776 150.133C161.937 153.978 162.637 160.666 162.803 162.343C163.093 165.287 165.447 168.063 167.86 169.507C170.273 170.952 174.878 173.242 174.878 173.242C174.878 173.242 175.555 187.275 174.878 187.167Z" fill="url(#paint17_linear_1_5761)"/>
<path id="Path 263" fill-rule="evenodd" clip-rule="evenodd" d="M155.03 162.23C155.03 162.23 156.323 143.578 153.661 143.578C150.998 143.578 151.161 158.336 149.208 160.863C147.256 163.389 145.51 169.848 145.51 169.848H155.03V162.23Z" fill="url(#paint18_linear_1_5761)"/>
<g id="Group">
<path id="Path 2" fill-rule="evenodd" clip-rule="evenodd" d="M133.223 60.6568C133.223 60.6568 140.887 67.4073 153.632 66.778C166.376 66.1487 176.367 63.8113 176.367 63.8113L174.322 48.6288C174.322 48.6288 180.722 17.4576 176.26 12.4219C171.799 7.38628 161.446 3.88787 154.078 6.12046C141.876 2.46341 131.963 7.99546 131.859 13.7331C131.756 19.4707 135.643 49.6551 135.643 49.6551L133.223 60.6568Z" fill="url(#paint19_linear_1_5761)"/>
<path id="Combined Shape" fill-rule="evenodd" clip-rule="evenodd" d="M133.426 61.0746C133.426 61.0746 141.327 67.1657 154.028 67.1651C166.729 67.1646 176.986 64.1633 176.986 64.1633L174.968 48.9763C174.968 48.9763 181.488 17.7861 176.988 12.7566C172.488 7.72711 162.031 4.24516 154.581 6.49072C142.256 2.85319 132.228 8.40337 132.114 14.1427C132 19.882 135.877 50.0679 135.877 50.0679L133.426 61.0746Z" fill="url(#paint20_linear_1_5761)"/>
<g id="Path">
<path fill-rule="evenodd" clip-rule="evenodd" d="M160.727 54.7854C161.76 43.9474 162.733 33.9249 163.643 24.7178C164.569 15.3622 163.32 9.1563 159.898 6.10022C161.548 6.83428 162.925 8.67112 164.031 11.6108C165.137 14.5504 164.518 28.8092 162.175 54.3873L161.752 54.648C161.965 54.6171 162.178 54.5847 162.392 54.5509C163.83 54.3828 165.58 54.0679 167.641 53.6064C170.012 41.3255 171.449 30.8779 171.953 22.2638C172.466 13.5049 169.202 7.99761 162.161 5.74179C166.805 6.79421 170.096 9.34299 172.033 13.3881C173.969 17.4332 172.886 30.7508 168.781 53.3409L168.776 53.3449C170.303 52.9835 171.985 52.5496 173.82 52.0431C170.049 54.4162 163.899 55.9136 155.369 56.5352C142.575 57.4677 135.516 53.4474 135.516 53.4474L135.81 50.55C137.784 51.5242 139.784 52.3431 141.809 53.0067C138.803 27.9138 137.689 13.7492 138.469 10.5129C139.261 7.22239 141.24 5.54278 144.406 5.47408C140.23 7.23104 138.714 14.532 139.86 27.3769C140.947 39.5736 141.941 48.2248 142.84 53.3306C145.366 54.0893 147.931 54.6085 150.536 54.8881C151.081 28.1979 151.596 13.338 152.08 10.3082C152.569 7.25201 153.375 5.7952 154.501 5.93779C153.725 10.0362 153.112 16.0391 152.661 23.9466C152.223 31.6308 151.788 41.9713 151.354 54.968C154.424 55.2376 157.548 55.1768 160.727 54.7854Z" fill="#DAE4FE" style="mix-blend-mode:multiply"/>
</g>
</g>
<path id="Path 258" fill-rule="evenodd" clip-rule="evenodd" d="M111.967 111.687C111.967 111.687 93.529 118.201 82.9672 136.306C72.4054 154.411 50.1329 187.727 69.7697 197.232C89.4066 206.738 130.707 203.523 150.976 190.69C150.976 190.69 141.408 184.282 141.408 169.535L98.4725 172.822C98.4725 172.822 104.968 160.563 109.267 146.269C113.566 131.976 111.967 111.687 111.967 111.687Z" fill="url(#paint21_linear_1_5761)"/>
<path id="Path 258_2" fill-rule="evenodd" clip-rule="evenodd" d="M193.752 111.629C193.752 111.629 212.19 118.143 222.752 136.248C233.313 154.353 255.586 187.669 235.949 197.174C216.312 206.68 188.539 206.82 168.269 193.987C168.269 193.987 173.132 190.295 173.132 181.558C173.132 172.822 168.269 170.062 168.269 170.062L207.246 172.764C207.246 172.764 207.123 171.644 200.814 156.055C194.506 140.465 193.752 111.629 193.752 111.629Z" fill="url(#paint22_linear_1_5761)"/>
<path id="Path 261" fill-rule="evenodd" clip-rule="evenodd" d="M207.267 172.822C207.267 172.822 225.257 172.371 232.032 177.115C225.545 166.365 207.267 172.822 207.267 172.822Z" fill="url(#paint23_linear_1_5761)"/>
<path id="Path 261_2" fill-rule="evenodd" clip-rule="evenodd" d="M73.8597 176.649C73.8597 176.649 90.7229 170.367 98.6737 172.648C89.0392 164.595 73.8597 176.649 73.8597 176.649Z" fill="url(#paint24_linear_1_5761)"/>
<path id="Path 263_2" fill-rule="evenodd" clip-rule="evenodd" d="M155.058 161.774C155.058 161.774 153.907 147.318 156.278 147.318C158.648 147.318 158.504 158.756 160.242 160.715C161.98 162.673 163.535 167.679 163.535 167.679H155.058V161.774Z" fill="url(#paint25_linear_1_5761)"/>
<path id="Path 263_3" fill-rule="evenodd" clip-rule="evenodd" d="M155.057 161.774C155.057 161.774 156.208 147.318 153.838 147.318C151.467 147.318 151.612 158.756 149.873 160.715C148.135 162.673 146.58 167.679 146.58 167.679H155.057V161.774Z" fill="url(#paint26_linear_1_5761)"/>
<path id="Path 264" fill-rule="evenodd" clip-rule="evenodd" d="M155.058 179.888C155.058 179.888 153.683 159.567 155.058 147V179.888Z" fill="#D39E5F"/>
</g>
</g>
<g id="Path 116 + Path 117 + Path 118 Mask">
<rect id="Mask" x="0.703125" y="221.459" width="304.896" height="12.9623" fill="#9C7F65"/>
<mask id="mask0_1_5761" style="mask-type:luminance" maskUnits="userSpaceOnUse" x="0" y="221" width="306" height="14">
<rect id="Mask_2" x="0.703125" y="221.459" width="304.896" height="12.9623" fill="white"/>
</mask>
<g mask="url(#mask0_1_5761)">
<path id="Path 116" fill-rule="evenodd" clip-rule="evenodd" d="M126.313 221.012C126.313 221.012 77.9472 221.963 77.9472 233.872H0.703125V220.993L126.313 221.012Z" fill="url(#paint27_linear_1_5761)"/>
<path id="Path 117" d="M0.703125 227.433C0.703125 227.433 35.0605 218.8 49.2842 225.332C63.5078 231.865 86.9151 232.227 110.505 227.493C134.095 222.76 168.765 220.993 168.765 220.993" stroke="#A35F4C"/>
<path id="Path 118" d="M122.244 234.319C122.244 234.319 163.787 224.081 193.036 227.494C222.284 230.906 288.205 238.372 305.599 225.842" stroke="#A35F4C"/>
</g>
</g>
<path id="Vector_2" d="M143.029 73C142.961 73.0002 142.895 72.9741 142.84 72.9256C142.784 72.877 142.743 72.8083 142.721 72.7291C142.699 72.65 142.697 72.5643 142.717 72.4841C142.736 72.4039 142.775 72.3331 142.829 72.2818C146.047 69.1744 150.449 69.698 151.61 71.1604C151.671 71.2365 151.704 71.3391 151.703 71.4455C151.702 71.552 151.667 71.6537 151.605 71.7281C151.544 71.8026 151.461 71.8438 151.374 71.8427C151.288 71.8416 151.206 71.7982 151.145 71.7221C150.309 70.6689 146.247 70.0009 143.231 72.9137C143.173 72.9696 143.102 73 143.029 73Z" fill="#654B1E"/>
<path id="Vector_3" d="M167.377 73C167.445 73.0002 167.511 72.9741 167.567 72.9256C167.622 72.877 167.663 72.8083 167.685 72.7291C167.708 72.65 167.709 72.5643 167.69 72.4841C167.67 72.4039 167.631 72.3331 167.577 72.2818C164.359 69.1744 159.957 69.698 158.796 71.1604C158.736 71.2365 158.702 71.3391 158.703 71.4455C158.704 71.552 158.739 71.6537 158.801 71.7281C158.863 71.8026 158.946 71.8438 159.032 71.8427C159.118 71.8416 159.201 71.7982 159.261 71.7221C160.097 70.6689 164.159 70.0009 167.176 72.9137C167.233 72.9696 167.304 73 167.377 73Z" fill="#654B1E"/>
<path id="Vector_4" d="M150.601 75.1056C150.612 74.0902 150.068 73.261 149.385 73.2536C148.703 73.2461 148.14 74.0632 148.129 75.0786C148.118 76.0941 148.663 76.9233 149.345 76.9307C150.028 76.9382 150.59 76.121 150.601 75.1056Z" fill="#654B1E"/>
<path id="Vector_5" d="M162.195 75.1056C162.206 74.0902 161.662 73.261 160.979 73.2536C160.297 73.2461 159.734 74.0632 159.723 75.0786C159.712 76.0941 160.256 76.9233 160.939 76.9307C161.622 76.9382 162.184 76.121 162.195 75.1056Z" fill="#654B1E"/>
<path id="Vector_6" d="M157.352 94.3097C155.992 94.3097 153.405 93.9861 151.792 91.744C151.756 91.694 151.73 91.6373 151.716 91.5773C151.701 91.5172 151.699 91.455 151.709 91.3942C151.719 91.3333 151.741 91.275 151.773 91.2225C151.806 91.1701 151.848 91.1245 151.898 91.0885C151.948 91.0525 152.005 91.0267 152.065 91.0125C152.125 90.9984 152.187 90.9962 152.248 91.0061C152.309 91.016 152.367 91.0378 152.42 91.0703C152.472 91.1027 152.518 91.1452 152.554 91.1952C154.292 93.6108 157.427 93.4021 158.037 93.3364C158.161 93.3231 158.286 93.3596 158.383 93.4382C158.481 93.5167 158.543 93.6307 158.557 93.7551C158.57 93.8795 158.533 94.0041 158.455 94.1015C158.376 94.1989 158.262 94.2612 158.138 94.2745C157.877 94.3001 157.615 94.3119 157.352 94.3097Z" fill="#BB8A52"/>
<path id="Vector_7" d="M156.561 87.4834C155.544 87.4558 154.571 87.0618 153.822 86.3741C153.787 86.3433 153.759 86.306 153.738 86.2643C153.718 86.2225 153.706 86.1773 153.704 86.131C153.701 86.0847 153.707 86.0383 153.723 85.9946C153.738 85.9508 153.761 85.9104 153.792 85.8757C153.823 85.8411 153.86 85.8128 153.902 85.7926C153.944 85.7724 153.989 85.7606 154.035 85.7579C154.082 85.7551 154.128 85.7616 154.172 85.7767C154.216 85.7919 154.256 85.8156 154.291 85.8464C155.276 86.7165 156.577 87.019 157.527 86.5805C158.346 86.2099 158.798 85.368 158.796 84.2047C158.796 82.5631 158.193 81.3904 157.663 80.3444C157.302 79.6409 156.99 79.0241 156.929 78.3862C156.925 78.34 156.93 78.2934 156.943 78.249C156.957 78.2047 156.979 78.1635 157.009 78.1278C157.069 78.0557 157.155 78.0102 157.248 78.0015C157.341 77.9928 157.434 78.0215 157.506 78.0813C157.579 78.1412 157.624 78.2272 157.633 78.3205C157.68 78.8247 157.966 79.3805 158.294 80.0255C158.833 81.0809 159.504 82.3965 159.504 84.2071C159.504 85.64 158.89 86.74 157.82 87.2231C157.424 87.399 156.994 87.4877 156.561 87.4834Z" fill="#BB8A52"/>
</g>
<defs>
<linearGradient id="paint0_linear_1_5761" x1="76.7273" y1="84.6848" x2="50.7597" y2="91.6428" gradientUnits="userSpaceOnUse">
<stop stop-color="#A0DBD5"/>
<stop offset="1" stop-color="#0D998B"/>
</linearGradient>
<linearGradient id="paint1_linear_1_5761" x1="90.9865" y1="117.157" x2="90.9865" y2="143.697" gradientUnits="userSpaceOnUse">
<stop stop-color="#A0DBD5"/>
<stop offset="1" stop-color="#0D998B"/>
</linearGradient>
<linearGradient id="paint2_linear_1_5761" x1="29.7676" y1="99.3131" x2="29.7676" y2="125.852" gradientUnits="userSpaceOnUse">
<stop stop-color="#A0DBD5"/>
<stop offset="1" stop-color="#0D998B"/>
</linearGradient>
<linearGradient id="paint3_linear_1_5761" x1="99.8929" y1="147.084" x2="99.8929" y2="180.258" gradientUnits="userSpaceOnUse">
<stop stop-color="#A0DBD5"/>
<stop offset="1" stop-color="#0D998B"/>
</linearGradient>
<linearGradient id="paint4_linear_1_5761" x1="24.3737" y1="133.814" x2="24.3737" y2="166.988" gradientUnits="userSpaceOnUse">
<stop stop-color="#A0DBD5"/>
<stop offset="1" stop-color="#0D998B"/>
</linearGradient>
<linearGradient id="paint5_linear_1_5761" x1="27.4801" y1="170.355" x2="27.4801" y2="203.529" gradientUnits="userSpaceOnUse">
<stop stop-color="#A0DBD5"/>
<stop offset="1" stop-color="#0D998B"/>
</linearGradient>
<linearGradient id="paint6_linear_1_5761" x1="238.522" y1="119.014" x2="258.08" y2="124.255" gradientUnits="userSpaceOnUse">
<stop stop-color="#A0DBD5"/>
<stop offset="1" stop-color="#0D998B"/>
</linearGradient>
<linearGradient id="paint7_linear_1_5761" x1="227.773" y1="143.407" x2="227.773" y2="163.339" gradientUnits="userSpaceOnUse">
<stop stop-color="#A0DBD5"/>
<stop offset="1" stop-color="#0D998B"/>
</linearGradient>
<linearGradient id="paint8_linear_1_5761" x1="273.917" y1="130.006" x2="273.917" y2="149.937" gradientUnits="userSpaceOnUse">
<stop stop-color="#A0DBD5"/>
<stop offset="1" stop-color="#0D998B"/>
</linearGradient>
<linearGradient id="paint9_linear_1_5761" x1="221.061" y1="165.882" x2="221.061" y2="190.797" gradientUnits="userSpaceOnUse">
<stop stop-color="#A0DBD5"/>
<stop offset="1" stop-color="#0D998B"/>
</linearGradient>
<linearGradient id="paint10_linear_1_5761" x1="277.982" y1="155.917" x2="277.982" y2="180.831" gradientUnits="userSpaceOnUse">
<stop stop-color="#A0DBD5"/>
<stop offset="1" stop-color="#0D998B"/>
</linearGradient>
<linearGradient id="paint11_linear_1_5761" x1="275.64" y1="183.359" x2="275.64" y2="208.274" gradientUnits="userSpaceOnUse">
<stop stop-color="#A0DBD5"/>
<stop offset="1" stop-color="#0D998B"/>
</linearGradient>
<linearGradient id="paint12_linear_1_5761" x1="103.748" y1="106.49" x2="103.748" y2="203.085" gradientUnits="userSpaceOnUse">
<stop stop-color="white"/>
<stop offset="1" stop-color="#E5E9F3"/>
</linearGradient>
<linearGradient id="paint13_linear_1_5761" x1="203.413" y1="125.828" x2="203.413" y2="178.859" gradientUnits="userSpaceOnUse">
<stop stop-color="#E8EDF9"/>
<stop offset="1" stop-color="#CDD7F0"/>
</linearGradient>
<linearGradient id="paint14_linear_1_5761" x1="104.467" y1="123.198" x2="104.467" y2="176.228" gradientUnits="userSpaceOnUse">
<stop stop-color="#E8EDF9"/>
<stop offset="1" stop-color="#CDD7F0"/>
</linearGradient>
<linearGradient id="paint15_linear_1_5761" x1="106.448" y1="104.529" x2="106.448" y2="230.615" gradientUnits="userSpaceOnUse">
<stop stop-color="#FFC3AA"/>
<stop offset="1" stop-color="#DF7255"/>
</linearGradient>
<linearGradient id="paint16_linear_1_5761" x1="157.543" y1="138.731" x2="165.965" y2="191.905" gradientUnits="userSpaceOnUse">
<stop stop-color="#D39E5F"/>
<stop offset="1" stop-color="#FFD2A8"/>
</linearGradient>
<linearGradient id="paint17_linear_1_5761" x1="153.498" y1="139.619" x2="145.076" y2="192.793" gradientUnits="userSpaceOnUse">
<stop stop-color="#D39E5F"/>
<stop offset="1" stop-color="#FFD2A8"/>
</linearGradient>
<linearGradient id="paint18_linear_1_5761" x1="156.449" y1="143.578" x2="156.204" y2="169.5" gradientUnits="userSpaceOnUse">
<stop stop-color="#DAA464"/>
<stop offset="1" stop-color="#EBBA87"/>
</linearGradient>
<linearGradient id="paint19_linear_1_5761" x1="124.891" y1="8.0481" x2="134.807" y2="70.6596" gradientUnits="userSpaceOnUse">
<stop stop-color="#E8EDF9"/>
<stop offset="1" stop-color="#CDD7F0"/>
</linearGradient>
<linearGradient id="paint20_linear_1_5761" x1="125.094" y1="8.46582" x2="135.041" y2="71.2666" gradientUnits="userSpaceOnUse">
<stop stop-color="#F4F6FA"/>
<stop offset="1" stop-color="#E5E9F3"/>
</linearGradient>
<linearGradient id="paint21_linear_1_5761" x1="61.9509" y1="111.687" x2="61.9509" y2="202.734" gradientUnits="userSpaceOnUse">
<stop stop-color="white"/>
<stop offset="1" stop-color="#E5E9F3"/>
</linearGradient>
<linearGradient id="paint22_linear_1_5761" x1="243.768" y1="111.629" x2="243.768" y2="203.997" gradientUnits="userSpaceOnUse">
<stop stop-color="white"/>
<stop offset="1" stop-color="#E5E9F3"/>
</linearGradient>
<linearGradient id="paint23_linear_1_5761" x1="207.267" y1="170.399" x2="207.267" y2="177.115" gradientUnits="userSpaceOnUse">
<stop stop-color="#E8EDF9"/>
<stop offset="1" stop-color="#CDD7F0"/>
</linearGradient>
<linearGradient id="paint24_linear_1_5761" x1="73.071" y1="174.359" x2="75.258" y2="180.71" gradientUnits="userSpaceOnUse">
<stop stop-color="#E8EDF9"/>
<stop offset="1" stop-color="#CDD7F0"/>
</linearGradient>
<linearGradient id="paint25_linear_1_5761" x1="153.795" y1="147.318" x2="153.703" y2="167.5" gradientUnits="userSpaceOnUse">
<stop stop-color="#EFB46E"/>
<stop offset="1" stop-color="#E7B681"/>
</linearGradient>
<linearGradient id="paint26_linear_1_5761" x1="156.32" y1="147.318" x2="155.704" y2="168" gradientUnits="userSpaceOnUse">
<stop stop-color="#EFB36D"/>
<stop offset="1" stop-color="#EAB885"/>
</linearGradient>
<linearGradient id="paint27_linear_1_5761" x1="0.703125" y1="220.993" x2="0.703125" y2="233.872" gradientUnits="userSpaceOnUse">
<stop stop-color="#9B6550"/>
<stop offset="1" stop-color="#9C7F65"/>
</linearGradient>
</defs>
</svg>
